<svg xmlns="http://www.w3.org/2000/svg" viewBox="0 0 133 40" class="design-iconfont">
  <g fill="none" fill-rule="evenodd">
    <path d="M122.008237,36 L7.24466991,36 C3.24352917,36 0,32.7564708 0,28.7553301 L0,7.24466991 C0,3.24357853 3.24352917,0 7.24466991,0 L122.008237,0 C126.009329,0 129.252907,3.24357853 129.252907,7.24466991 L129.252907,28.7553301 C129.252907,32.7564708 126.009329,36 122.008237,36" stroke="#000" stroke-width="2.4" fill="#83FFC1" transform="translate(2 2)"/>
    <path d="M7.39072325,20.3185412 C4.92366079,13.5599095 2.4645945,6.82334133 0,0.0715212175 C0.0561212038,0.0677205731 0.0972866251,0.0624832816 0.138452046,0.0624832816 C1.5305738,0.0704846781 2.92269555,0.0766545554 4.3148173,0.0885500788 C4.95070954,0.0939795709 5.21912388,0.283518201 5.44518818,0.888363611 C5.761925,1.73566052 6.07219579,2.58537602 6.38152876,3.43543703 C7.82883389,7.41303352 9.27520121,11.3909755 10.7209269,15.3691643 C10.9304559,15.9456777 10.8457558,16.4837403 10.4406663,16.9408542 C9.45881675,18.0487667 8.46191266,19.1432536 7.47078357,20.2429232 C7.45168163,20.2641475 7.42927264,20.2823116 7.39072325,20.3185412" fill="#000" transform="translate(11.606464 10.419224)"/>
    <path d="M17.5669487,20.3185412 C15.0998862,13.5599095 12.6408199,6.82334133 10.1762254,0.0715212175 C10.2323466,0.0677205731 10.273512,0.0624832816 10.3146775,0.0624832816 C11.7067992,0.0704846781 13.098921,0.0766545554 14.4910427,0.0885500788 C15.1269349,0.0939795709 15.3953493,0.283518201 15.6214136,0.888363611 C15.9381504,1.73566052 16.2484212,2.58537602 16.5577542,3.43543703 C18.0050593,7.41303352 19.451476,11.3909755 20.8971523,15.3691643 C21.1066813,15.9456777 21.0219812,16.4837403 20.6168918,16.9408542 C19.6350422,18.0487667 18.6381381,19.1432536 17.647009,20.2429232 C17.627907,20.2641475 17.605498,20.2823116 17.5669487,20.3185412" fill="#000" transform="translate(11.606464 10.419224)"/>
    <path d="M20.4447867,0.337507095 C20.8015044,0.253547405 21.1413412,0.157889628 21.4871998,0.0955985467 C22.1403184,-0.022023994 22.7985702,-0.038213752 23.4527747,0.0871087955 C24.7000277,0.326105162 25.6527061,0.975472407 26.2392393,2.12188497 C26.5113556,2.65382711 26.6896404,3.2084744 26.6733519,3.81677494 C26.6567179,4.43815562 26.4637241,5.00272407 26.1552796,5.53353095 C25.6196849,6.45506382 24.8872958,7.20764078 24.10229,7.91421512 C23.8837283,8.11096017 23.6606748,8.30271996 23.425183,8.50948488 C22.4314379,5.78462028 21.4438133,3.07668582 20.4447867,0.337507095" fill="#000" transform="translate(11.606464 10.419224)"/>
    <path d="M42.6638525,10.3790663 C42.1538257,9.40151093 41.4327398,8.6129019 40.5201903,8.03520395 C39.9428872,7.66989785 39.3094136,7.40528416 38.6273213,7.24383081 L42.6299922,3.14342908 L42.6299922,0 L30.3351543,0 L30.3351543,4.00084459 L36.4286238,4.00084459 L31.1546621,9.35624871 L33.9441377,12.4445931 L34.3807182,11.8407843 C34.7789467,11.2900363 35.3921338,11.022313 36.255275,11.022313 C37.1147636,11.022313 37.7649699,11.2488216 38.2431107,11.714672 C38.7170066,12.1764749 38.9473158,12.8082704 38.9473158,13.6461397 C38.9473158,14.4916597 38.7125643,15.1465058 38.2296357,15.6478947 C37.7531237,16.1428669 37.1370245,16.3834922 36.346293,16.3834922 C35.5741699,16.3834922 34.9495315,16.2048125 34.4363951,15.8371865 C33.9152133,15.4640817 33.527054,14.9360389 33.2496563,14.2228998 L32.9930387,13.5630191 L29.4812927,15.6249428 L29.6404755,16.0906945 C30.0928509,17.4145033 30.9289927,18.4718722 32.1255046,19.2334325 C33.30173,19.981962 34.7218383,20.3615822 36.346293,20.3615822 C37.7262231,20.3615822 38.963703,20.0782615 40.0246258,19.519468 C41.0983325,18.9533201 41.9435563,18.1496072 42.536753,17.1305903 C43.1264452,16.1173483 43.4253634,14.9450716 43.4253634,13.6461397 C43.4253634,12.4477521 43.1692395,11.3486255 42.6638525,10.3790663" fill="#000" transform="translate(11.606464 10.419224)"/>
    <path fill="#000" d="M60.8900254 0.254184137L58.2156057 8.79457764 56.6704216 8.79457764 54.5308562 1.98258888 52.3318626 8.79457764 50.7866785 8.79457764 48.1122589 0.254184137 49.5386358 0.254184137 51.5592953 6.60866415 53.5800041 0.254184137 55.4223788 0.254184137 57.442989 6.60866415 59.4637472 0.254184137z" transform="translate(11.606464 10.419224)"/>
    <path d="M69.5670891,8.7945727 L65.8229114,8.7945727 C64.356603,8.7945727 63.3267764,8.52295002 62.7324939,7.98118544 C62.1381126,7.40531377 61.8409713,6.45618921 61.8409713,5.13440406 L61.8409713,0.254179201 L69.5670891,0.254179201 L69.5670891,1.47423542 L63.2079199,1.47423542 L63.2079199,3.81266827 L69.2105195,3.81266827 L69.2105195,4.98193405 L63.2079199,4.98193405 L63.2079199,5.13440406 C63.2079199,6.08362734 63.4056522,6.72781189 63.8022025,7.06616796 C64.1587721,7.40531377 64.8320291,7.57451649 65.8229114,7.57451649 L69.5670891,7.57451649 L69.5670891,8.7945727 Z" fill="#000" transform="translate(11.606464 10.419224)"/>
    <path d="M78.3629105,6.20198533 C78.3629105,5.79526702 78.1846751,5.47354494 77.8280562,5.23612806 C77.5503624,5.03271954 77.2337243,4.93108933 76.8771054,4.93108933 L72.4197392,4.93108933 L72.4197392,7.57451155 L76.342251,7.57451155 C77.6887157,7.57451155 78.3629105,7.11700281 78.3629105,6.20198533 M78.0657199,2.4909769 C78.0657199,1.81337629 77.5698592,1.47423048 76.5799641,1.47423048 L72.4197392,1.47423048 L72.4197392,3.7618729 L76.104538,3.7618729 C77.4120584,3.7618729 78.0657199,3.33847124 78.0657199,2.4909769 M79.6704309,6.20198533 C79.6704309,7.11700281 79.2934267,7.81202715 78.5412447,8.28621924 C77.9469127,8.62457531 77.2132896,8.79456777 76.342251,8.79456777 L71.1123175,8.79456777 L71.1123175,0.254174265 L76.5799641,0.254174265 C77.372127,0.254174265 78.006341,0.424216083 78.4817671,0.762572153 C79.076099,1.16919175 79.3732896,1.74585316 79.3732896,2.4909769 C79.3732896,3.20263522 79.1150926,3.77934599 78.6006729,4.21938164 C79.3138614,4.69436347 79.6704309,5.35528073 79.6704309,6.20198533" fill="#000" transform="translate(11.606464 10.419224)"/>
    <path d="M89.3577898,6.30361061 C89.3577898,7.11699787 89.0207171,7.74449907 88.3474107,8.18448536 C87.7531775,8.59125303 87.0195544,8.79456283 86.1484664,8.79456283 L81.3345801,8.79456283 L81.3345801,7.57450662 L86.0890382,7.57450662 C87.2776527,7.57450662 87.8719846,7.15110496 87.8719846,6.30361061 C87.8719846,5.42279893 87.2182244,4.98192418 85.9108028,4.98192418 L81.3940084,4.98192418 L81.3940084,3.76186796 L86.0890382,3.76186796 C87.2377213,3.76186796 87.8126057,3.35514965 87.8126057,2.54181175 C87.8126057,1.83010407 87.2573168,1.47422554 86.1484664,1.47422554 L81.156246,1.47422554 L81.156246,0.254169329 L86.1484664,0.254169329 C86.9006979,0.254169329 87.5349119,0.390005347 88.0503188,0.660936999 C88.8424323,1.0341899 89.2389333,1.66090135 89.2389333,2.54181175 C89.2389333,3.38930609 88.9213574,4.01606691 88.2880318,4.42273586 C89.0012203,4.79603812 89.3577898,5.42279893 89.3577898,6.30361061" fill="#000" transform="translate(11.606464 10.419224)"/>
    <path d="M99.5800721,8.7945727 L95.5387038,8.7945727 C94.1912519,8.7945727 93.161376,8.57374045 92.4481876,8.13375416 C91.3785283,7.49035936 90.8435752,6.28693714 90.8435752,4.52442531 C90.8435752,2.76260451 91.3785283,1.5425483 92.4481876,0.864256667 C93.161376,0.457538356 94.1912519,0.254179201 95.5387038,0.254179201 L99.5205451,0.254179201 L99.5205451,1.47423542 L95.5387038,1.47423542 C94.5079394,1.47423542 93.7752541,1.59338809 93.3397595,1.83011394 C92.6265711,2.30509577 92.2699521,3.20264016 92.2699521,4.52442531 C92.2699521,5.84611174 92.6265711,6.72781189 93.3397595,7.16784754 C93.7752541,7.43947021 94.5079394,7.57451649 95.5387038,7.57451649 L98.1536952,7.57451649 L98.1536952,6.30362048 C98.1536952,5.8294284 98.0542861,5.49028258 97.8565046,5.28687407 C97.6578345,5.11772071 97.301265,5.03272448 96.7867466,5.03272448 L95.0038001,5.03272448 L95.0038001,3.86350806 L96.7867466,3.86350806 C98.6486181,3.86350806 99.5800721,4.67689532 99.5800721,6.30362048 L99.5800721,8.7945727 Z" fill="#000" transform="translate(11.606464 10.419224)"/>
    <path d="M108.613567,4.52442037 C108.613567,3.60930417 108.295942,2.83012271 107.662616,2.18593816 C106.98852,1.50843628 106.196407,1.16919175 105.285387,1.16919175 C104.334436,1.16919175 103.521938,1.50843628 102.848681,2.18593816 C102.174535,2.83012271 101.8384,3.60930417 101.8384,4.52442037 C101.8384,5.43943786 102.174535,6.21945842 102.848681,6.86280387 C103.521938,7.50698841 104.334436,7.8287105 105.285387,7.8287105 C106.196407,7.8287105 106.98852,7.50698841 107.662616,6.86280387 C108.295942,6.21945842 108.613567,5.43943786 108.613567,4.52442037 M110.039944,4.52442037 C110.039944,5.77858367 109.564419,6.84616988 108.613567,7.72698156 C107.701709,8.60789196 106.572473,9.04876671 105.225959,9.04876671 C103.918439,9.04876671 102.789252,8.60789196 101.8384,7.72698156 C100.926443,6.84616988 100.471402,5.77858367 100.471402,4.52442037 C100.471402,3.2709481 100.926443,2.20346062 101.8384,1.32176047 C102.789252,0.440850072 103.918439,2.46795091e-05 105.225959,2.46795091e-05 C106.572473,2.46795091e-05 107.701709,0.440850072 108.613567,1.32176047 C109.564419,2.20346062 110.039944,3.2709481 110.039944,4.52442037" fill="#000" transform="translate(11.606464 10.419224)"/>
    <path d="M69.6491089,20.3615674 L53.019414,20.3615674 C50.7721473,20.3615674 48.9504046,18.5398248 48.9504046,16.2926074 L48.9504046,16.2926074 C48.9504046,14.0453406 50.7721473,12.2236474 53.019414,12.2236474 L69.6491089,12.2236474 C71.8963263,12.2236474 73.718069,14.0453406 73.718069,16.2926074 L73.718069,16.2926074 C73.718069,18.5398248 71.8963263,20.3615674 69.6491089,20.3615674" fill="#000" transform="translate(11.606464 10.419224)"/>
    <path d="M55.4081091,18.4091221 L53.4724459,18.4091221 C52.7972639,18.4091221 52.3008109,18.2662277 51.9834817,17.9807845 C51.7051956,17.7288067 51.5665461,17.3425724 51.5665461,16.8216867 L51.5665461,14.1760433 L52.2515012,14.1760433 L52.2515012,16.7461674 C52.2515012,17.1158171 52.3407917,17.3760378 52.5195207,17.5272739 C52.698151,17.7122715 53.0155294,17.8043754 53.4724459,17.8043754 L55.4081091,17.8043754 L55.4081091,18.4091221 Z" fill="#83FFC1" transform="translate(11.606464 10.419224)"/>
    <path d="M59.6667065,16.796558 L58.713732,14.9320211 C58.6541556,14.8146454 58.5745889,14.7556613 58.475476,14.7556613 L58.4158996,14.7556613 L57.4034475,16.796558 L59.6667065,16.796558 Z M61.274774,18.4091172 L60.5004791,18.4091172 L59.9644401,17.4013047 L57.1056151,17.4013047 L56.6291032,18.4091172 L55.8548576,18.4091172 L57.9394864,14.1760877 L58.475476,14.1760877 C58.7332781,14.1760877 58.9319975,14.2265327 59.0710912,14.3272744 C59.1901946,14.4115303 59.3093472,14.5710093 59.4284012,14.8060075 L61.274774,18.4091172 Z" fill="#83FFC1" transform="translate(11.606464 10.419224)"/>
    <path d="M65.6523118,17.1240699 C65.6523118,16.9225371 65.5629226,16.7630581 65.3842923,16.6453368 C65.2451986,16.5445951 65.0865094,16.4941995 64.9078297,16.4941995 L62.6743835,16.4941995 L62.6743835,17.8043853 L64.6398102,17.8043853 C65.3144987,17.8043853 65.6523118,17.5776299 65.6523118,17.1240699 M65.503445,15.2847555 C65.503445,14.9489167 65.2549223,14.7807999 64.7589136,14.7807999 L62.6743835,14.7807999 L62.6743835,15.9146259 L64.5206576,15.9146259 C65.1758492,15.9146259 65.503445,15.7048501 65.503445,15.2847555 M66.3075034,17.1240699 C66.3075034,17.5776299 66.1185571,17.9221559 65.7416516,18.1571542 C65.4438687,18.3248761 65.076292,18.409132 64.6398102,18.409132 L62.0191919,18.409132 L62.0191919,14.1760532 L64.7589136,14.1760532 C65.1558094,14.1760532 65.4736815,14.260309 65.7118881,14.428031 C66.0096711,14.6296626 66.1585379,14.9154019 66.1585379,15.2847555 C66.1585379,15.637475 66.0291679,15.9233624 65.7714645,16.1414799 C66.1287744,16.3768731 66.3075034,16.7044196 66.3075034,17.1240699" fill="#83FFC1" transform="translate(11.606464 10.419224)"/>
    <path d="M71.101967,17.0736892 C71.101967,17.9642739 70.5259472,18.4091468 69.3747962,18.4091468 L66.8137542,18.4091468 L66.8137542,17.8044001 L69.3747962,17.8044001 C69.7121651,17.8044001 69.9600954,17.7626424 70.1192783,17.6784359 C70.2979085,17.5610601 70.3872977,17.3595273 70.3872977,17.0736892 C70.3872977,16.6705741 70.0792481,16.4689918 69.4640867,16.4689918 L68.3920581,16.4689918 C67.9350923,16.4689918 67.5479696,16.3768386 67.2305911,16.191841 C66.8733305,15.9902587 66.6946015,15.6965232 66.6946015,15.3099927 C66.6946015,14.890293 66.8928273,14.5792818 67.2901674,14.3776502 C67.56796,14.2434431 67.9053782,14.176068 68.302669,14.176068 L70.8935238,14.176068 L70.8935238,14.7808147 L68.302669,14.7808147 C67.7071524,14.7808147 67.4093201,14.9571745 67.4093201,15.3099927 C67.4093201,15.4780108 67.4883932,15.6122674 67.6475761,15.7131078 C67.8262063,15.8138496 68.0742848,15.8642451 68.3920581,15.8642451 L69.4640867,15.8642451 C69.8810716,15.8642451 70.2383322,15.948501 70.5361645,16.1162229 C70.9131194,16.3347353 71.101967,16.6539894 71.101967,17.0736892" fill="#83FFC1" transform="translate(11.606464 10.419224)"/>
  </g>
</svg>
