<svg xmlns="http://www.w3.org/2000/svg" viewBox="0 0 60 36" class="design-iconfont">
  <g fill="none" fill-rule="evenodd">
    <rect stroke="#000" stroke-width="3" fill="#83FFC1" x="1.5" y="1.5" width="57" height="33" rx="8"/>
    <path d="M46.4983578,10 L46.4983578,12.4701575 L43.3530318,15.6921477 L43.6178179,15.7623445 C44.0537313,15.8905534 44.4624338,16.0747694 44.8405124,16.3140444 L44.8405124,16.3140444 L45.0739345,16.4714771 C45.6814274,16.9075382 46.1687384,17.4730197 46.5249609,18.1558182 L46.5249609,18.1558182 L46.6500795,18.4135095 C46.9643401,19.1105693 47.1233342,19.8859958 47.1233342,20.7230836 L47.1233342,20.7230836 L47.1162935,21.0262607 C47.0740687,21.9266921 46.8420948,22.7445332 46.4251009,23.4611069 L46.4251009,23.4611069 L46.2793197,23.6962299 C45.8242757,24.3862725 45.2104201,24.9379004 44.4510324,25.3382641 L44.4510324,25.3382641 L44.1968135,25.4634897 C43.421827,25.8196506 42.5365981,26 41.5606638,26 L41.5606638,26 L41.244905,25.9937909 C40.0995228,25.9482749 39.0912653,25.6527126 38.2440557,25.1135137 L38.2440557,25.1135137 L38.014897,24.959089 C37.1963645,24.3751996 36.6171326,23.5975297 36.2912827,22.6439459 L36.2912827,22.6439459 L36.1661957,22.2779894 L38.9257111,20.6577553 L39.1273313,21.1762538 L39.2131947,21.3796227 C39.4232192,21.8384627 39.7015341,22.1882448 40.059816,22.4448158 L40.059816,22.4448158 L40.2152118,22.5461871 C40.5876293,22.7665604 41.0297483,22.8740693 41.5606638,22.8740693 L41.5606638,22.8740693 L41.7627416,22.8670507 C42.2882603,22.8295787 42.7077426,22.6417472 43.0406091,22.2960087 L43.0406091,22.2960087 L43.1598861,22.1601868 C43.458776,21.7858618 43.6045163,21.3136231 43.6045163,20.7230836 L43.6045163,20.7230836 L43.5977991,20.5095768 C43.5619356,19.9560095 43.3821612,19.5278877 43.0511586,19.2053305 L43.0511586,19.2053305 L42.9208719,19.0902548 C42.5598755,18.8018921 42.0895006,18.6612772 41.4891761,18.6612772 L41.4891761,18.6612772 L41.2915496,18.6676012 C40.7161901,18.7055806 40.2977631,18.9149503 40.0161109,19.3044041 L40.0161109,19.3044041 L39.6730226,19.7788699 L37.4810838,17.3520898 L41.6253368,13.143819 L36.8371051,13.143819 L36.8371051,10 L46.4983578,10 Z M21.1051675,10.0491437 L22.7460665,10.0582107 L22.7460665,10.0582107 L24.3869163,10.0695874 L24.5059714,10.0737715 C24.9215321,10.1009361 25.112337,10.2623944 25.2751718,10.6981022 L25.2751718,10.6981022 L25.6452482,11.6980285 L25.6452482,11.6980285 L26.0109508,12.6996257 L27.7163755,17.3881203 L27.7163755,17.3881203 L29.4208664,22.076959 L29.463292,22.211947 C29.5696446,22.6139814 29.4871186,22.988751 29.2005717,23.3120377 L29.2005717,23.3120377 L28.0364646,24.6118059 L28.0364646,24.6118059 L26.8669026,25.9067581 L26.8506233,25.9232728 C26.8387123,25.9345625 26.8241803,25.9472306 26.8039987,25.9661892 L26.8039987,25.9661892 L23.8994602,18.0091653 L23.8994602,18.0091653 L20.9963961,10.0562204 C21.039577,10.0532717 21.0715532,10.0491437 21.1032017,10.0491437 L21.1032017,10.0491437 L21.1051675,10.0491437 Z M13.1088369,10.0491437 L14.7496867,10.0582107 L14.7496867,10.0582107 L16.3905857,10.0695874 L16.5096257,10.0737715 C16.925136,10.1009361 17.1159408,10.2623944 17.2787757,10.6981022 L17.2787757,10.6981022 L17.6488275,11.6980285 L17.6488275,11.6980285 L18.0145547,12.6996257 L19.7199548,17.3881203 L19.7199548,17.3881203 L21.4244703,22.076959 L21.4668941,22.211947 C21.5732367,22.6139814 21.4906635,22.988751 21.2041756,23.3120377 L21.2041756,23.3120377 L20.0400357,24.6118059 L20.0400357,24.6118059 L18.8704409,25.9067581 L18.8542344,25.9232728 C18.842338,25.9345625 18.8277624,25.9472306 18.807537,25.9661892 L18.807537,25.9661892 L15.9030313,18.0091653 L15.9030313,18.0091653 L13,10.0562204 C13.0431809,10.0532717 13.0750915,10.0491437 13.1068056,10.0491437 L13.1068056,10.0491437 L13.1088369,10.0491437 Z M30.6953911,10 L30.9401193,10.0073703 C31.1032472,10.0172767 31.2662877,10.0373273 31.4290079,10.0684735 L31.4290079,10.0684735 L31.6354691,10.1136754 C32.5145983,10.3311525 33.1906072,10.8308557 33.6185878,11.6673465 L33.6185878,11.6673465 L33.7054791,11.8476687 C33.8693181,12.2107725 33.9707186,12.5894877 33.9597104,12.9992055 L33.9597104,12.9992055 L33.9457765,13.2057904 C33.9014962,13.6137007 33.7604117,13.9906908 33.5526042,14.3482321 L33.5526042,14.3482321 L33.3877519,14.6137414 C32.9872155,15.2196241 32.4791262,15.7331171 31.9393813,16.2189678 L31.9393813,16.2189678 L31.6783465,16.4499103 L31.6783465,16.4499103 L31.4073847,16.68675 L29.8479213,12.4108866 L29.8479213,12.4108866 L29.0653938,10.2652448 L29.3419429,10.1975139 C29.5242428,10.1520687 29.7033005,10.1077885 29.884455,10.0751571 C30.1540245,10.0266031 30.4247078,10 30.6953911,10 L30.6953911,10 Z" fill="#000"/>
  </g>
</svg>
