<?xml version="1.0" encoding="utf-8"?>
<!-- Generator: Adobe Illustrator 26.5.0, SVG Export Plug-In . SVG Version: 6.00 Build 0)  -->
<svg version="1.1" id="图层_1" xmlns="http://www.w3.org/2000/svg" xmlns:xlink="http://www.w3.org/1999/xlink" x="0px" y="0px"
	 viewBox="0 0 410.44 300" style="enable-background:new 0 0 410.44 300;" xml:space="preserve">
<style type="text/css">
	.st0{fill:#51EB0D;}
</style>
<g>
	<g>
		<path d="M345.74,65.08c8.17,0,14.81,6.64,14.81,14.81v140.23c0,8.17-6.64,14.81-14.81,14.81H64.7c-8.17,0-14.81-6.64-14.81-14.81
			V79.89c0-8.17,6.64-14.81,14.81-14.81H345.74 M345.74,62.58H64.7c-9.56,0-17.31,7.75-17.31,17.31v140.23
			c0,9.56,7.75,17.31,17.31,17.31h281.04c9.56,0,17.31-7.75,17.31-17.31V79.89C363.05,70.33,355.3,62.58,345.74,62.58L345.74,62.58z
			"/>
	</g>
	<g>
		<g>
			<g>
				<path class="st0" d="M129.47,213.68c-13.36-36.6-26.67-73.08-40.02-109.64c0.3-0.02,0.53-0.05,0.75-0.05
					c7.54,0.04,15.08,0.08,22.61,0.14c3.44,0.03,4.9,1.06,6.12,4.33c1.71,4.59,3.4,9.19,5.07,13.79
					c7.84,21.54,15.67,43.08,23.5,64.62c1.13,3.12,0.68,6.04-1.52,8.51c-5.32,6-10.71,11.93-16.08,17.88
					C129.8,213.38,129.68,213.48,129.47,213.68z"/>
				<path class="st0" d="M184.58,213.68c-13.36-36.6-26.67-73.08-40.02-109.64c0.3-0.02,0.53-0.05,0.75-0.05
					c7.54,0.04,15.08,0.08,22.61,0.14c3.44,0.03,4.9,1.06,6.12,4.33c1.71,4.59,3.4,9.19,5.07,13.79
					c7.84,21.54,15.67,43.08,23.5,64.62c1.13,3.12,0.68,6.04-1.52,8.51c-5.32,6-10.71,11.93-16.08,17.88
					C184.91,213.38,184.78,213.48,184.58,213.68z"/>
				<path class="st0" d="M200.16,105.48c1.93-0.45,3.77-0.97,5.64-1.31c3.54-0.64,7.1-0.72,10.64-0.05
					c6.75,1.29,11.91,4.81,15.09,11.02c1.47,2.88,2.44,5.88,2.35,9.18c-0.09,3.36-1.14,6.42-2.81,9.3
					c-2.9,4.99-6.87,9.07-11.12,12.89c-1.18,1.07-2.39,2.1-3.67,3.22C210.92,134.98,205.57,120.31,200.16,105.48z"/>
			</g>
			<path class="st0" d="M320.47,159.86c-2.76-5.29-6.67-9.56-11.61-12.69c-3.13-1.98-6.56-3.41-10.25-4.29l21.67-22.2v-17.02h-66.58
				v21.66h33l-28.56,29l15.1,16.72l2.36-3.27c2.16-2.98,5.48-4.43,10.15-4.43c4.65,0,8.17,1.23,10.76,3.75
				c2.57,2.5,3.81,5.92,3.81,10.46c0,4.58-1.27,8.12-3.89,10.84c-2.58,2.68-5.92,3.98-10.2,3.98c-4.18,0-7.56-0.97-10.34-2.96
				c-2.82-2.02-4.92-4.88-6.43-8.74l-1.39-3.57l-19.02,11.17l0.86,2.52c2.45,7.17,6.98,12.89,13.46,17.02
				c6.37,4.05,14.06,6.11,22.86,6.11c7.47,0,14.17-1.53,19.92-4.56c5.81-3.07,10.39-7.42,13.6-12.94
				c3.19-5.49,4.81-11.83,4.81-18.87C324.6,171.06,323.21,165.11,320.47,159.86z"/>
		</g>
		<g>
			<g>
				<path d="M88.41,102.2l3.66,0.02c5.61,0.03,11.41,0.06,17.12,0.11c2.69,0.02,3.48,0.58,4.44,3.16c1.79,4.78,3.55,9.62,5.06,13.78
					c7.84,21.54,15.67,43.08,23.5,64.62c0.93,2.56,0.55,4.75-1.17,6.7c-3.83,4.32-7.78,8.69-11.59,12.91
					c-0.96,1.07-1.93,2.13-2.89,3.2L88.41,102.2 M86.58,100.38c-0.22,0-0.44,0.03-0.74,0.05c13.35,36.56,26.66,73.04,40.02,109.64
					c0.21-0.2,0.33-0.29,0.43-0.41c5.37-5.95,10.76-11.88,16.08-17.88c2.19-2.48,2.65-5.39,1.52-8.51
					c-7.83-21.54-15.66-43.08-23.5-64.62c-1.67-4.6-3.36-9.2-5.07-13.79c-1.22-3.28-2.68-4.3-6.12-4.33
					c-7.54-0.06-15.08-0.1-22.61-0.14C86.59,100.38,86.58,100.38,86.58,100.38L86.58,100.38z"/>
				<path d="M143.51,102.2l3.66,0.02c5.61,0.03,11.41,0.06,17.12,0.11c2.69,0.02,3.48,0.58,4.44,3.16
					c1.79,4.78,3.55,9.62,5.06,13.78c7.84,21.54,15.67,43.08,23.5,64.62c0.93,2.56,0.55,4.75-1.17,6.7
					c-3.83,4.32-7.78,8.69-11.59,12.91c-0.96,1.07-1.93,2.13-2.89,3.2L143.51,102.2 M141.68,100.38c-0.22,0-0.44,0.03-0.74,0.05
					c13.35,36.56,26.66,73.04,40.02,109.64c0.21-0.2,0.33-0.29,0.43-0.41c5.37-5.95,10.76-11.88,16.08-17.88
					c2.19-2.48,2.65-5.39,1.52-8.51c-7.83-21.54-15.66-43.08-23.5-64.62c-1.67-4.6-3.36-9.2-5.07-13.79
					c-1.22-3.28-2.68-4.3-6.12-4.33c-7.54-0.06-15.08-0.1-22.61-0.14C141.69,100.38,141.68,100.38,141.68,100.38L141.68,100.38z"/>
				<path d="M207.78,101.85L207.78,101.85c1.61,0,3.19,0.15,4.71,0.44c6.47,1.24,10.99,4.53,13.82,10.07
					c1.54,3.01,2.22,5.65,2.15,8.31c-0.08,2.84-0.91,5.6-2.56,8.44c-2.97,5.12-7.11,9.17-10.76,12.46c-0.55,0.49-1.1,0.98-1.66,1.47
					l-14.55-39.88c1.23-0.31,2.4-0.6,3.58-0.81C204.31,102.01,206.09,101.85,207.78,101.85 M207.78,100.04
					c-1.87,0-3.73,0.18-5.59,0.52c-1.87,0.34-3.71,0.86-5.64,1.31c5.41,14.83,10.76,29.5,16.14,44.25c1.28-1.12,2.48-2.16,3.67-3.22
					c4.25-3.83,8.22-7.9,11.12-12.89c1.67-2.87,2.72-5.93,2.81-9.3c0.09-3.29-0.88-6.3-2.35-9.18c-3.18-6.21-8.33-9.72-15.09-11.02
					C211.15,100.19,209.47,100.04,207.78,100.04L207.78,100.04z"/>
			</g>
			<path d="M314.87,101.85v14.48l-21.16,21.68c-0.45,0.47-0.62,1.14-0.44,1.77s0.69,1.1,1.32,1.25c3.49,0.83,6.76,2.19,9.7,4.05
				c4.67,2.96,8.36,6.99,10.97,12c2.6,4.99,3.92,10.66,3.92,16.86c0,6.71-1.54,12.75-4.57,17.96c-3.04,5.22-7.37,9.34-12.88,12.25
				c-5.48,2.89-11.9,4.35-19.08,4.35c-8.45,0-15.81-1.96-21.89-5.83c-6.12-3.9-10.4-9.31-12.72-16.08l-0.39-1.13l15.92-9.34
				l0.62,1.6c1.63,4.2,3.94,7.32,7.06,9.55c3.1,2.22,6.82,3.3,11.39,3.3c4.8,0,8.56-1.48,11.5-4.54c2.95-3.07,4.39-7.02,4.39-12.09
				c0-5.05-1.43-8.89-4.36-11.75c-2.94-2.87-6.88-4.26-12.02-4.26c-5.29,0-9.09,1.69-11.61,5.18l-1.06,1.46l-12.47-13.8l27.36-27.79
				c0.51-0.52,0.66-1.29,0.38-1.96c-0.28-0.67-0.94-1.11-1.67-1.11h-31.19v-18.05H314.87 M316.68,100.04H250.1v21.66h33l-28.56,29
				l15.1,16.72l2.36-3.27c2.16-2.98,5.48-4.43,10.15-4.43c4.65,0,8.17,1.23,10.76,3.75c2.57,2.5,3.81,5.92,3.81,10.46
				c0,4.58-1.27,8.12-3.89,10.84c-2.58,2.68-5.92,3.98-10.2,3.98c-4.18,0-7.56-0.97-10.34-2.96c-2.82-2.02-4.92-4.88-6.43-8.74
				l-1.39-3.57l-19.02,11.17l0.86,2.52c2.45,7.17,6.98,12.89,13.46,17.02c6.37,4.05,14.06,6.11,22.85,6.11
				c7.47,0,14.17-1.53,19.92-4.56c5.81-3.07,10.39-7.42,13.6-12.94c3.19-5.49,4.81-11.83,4.81-18.87c0-6.49-1.39-12.44-4.12-17.69
				c-2.76-5.29-6.67-9.56-11.61-12.69c-3.13-1.98-6.56-3.41-10.25-4.29l21.67-22.2V100.04L316.68,100.04z"/>
		</g>
	</g>
</g>
</svg>
