<svg id="图层_1" data-name="图层 1" xmlns="http://www.w3.org/2000/svg" xmlns:xlink="http://www.w3.org/1999/xlink" viewBox="0 0 240 240"><defs><style>.cls-1{fill:url(#未命名的渐变_5);}.cls-2{fill:none;stroke:#000;stroke-miterlimit:10;stroke-width:6px;}.cls-3{fill:url(#未命名的渐变_2);}.cls-4{fill:url(#未命名的渐变_2-2);}.cls-5{fill:url(#未命名的渐变_2-3);}.cls-6{fill:url(#未命名的渐变_2-4);}.cls-7{fill:url(#未命名的渐变_2-5);}.cls-8{fill:url(#未命名的渐变_2-6);}.cls-9{fill:url(#未命名的渐变_2-7);}.cls-10{fill:url(#未命名的渐变_2-8);}.cls-11{fill:url(#未命名的渐变_2-9);}.cls-12{fill:url(#未命名的渐变_2-10);}</style><linearGradient id="未命名的渐变_5" x1="-767.18" y1="-1017.83" x2="-608.19" y2="-914.91" gradientTransform="translate(284.55 -1052.69) rotate(-136.61)" gradientUnits="userSpaceOnUse"><stop offset="0.03" stop-color="#83ffc1"/><stop offset="0.5" stop-color="#99e2ff"/><stop offset="1" stop-color="#ffe780"/></linearGradient><linearGradient id="未命名的渐变_2" x1="-89.84" y1="117.86" x2="-78.31" y2="117.86" gradientTransform="translate(150.29 -37.68) rotate(-15)" gradientUnits="userSpaceOnUse"><stop offset="0" stop-color="#83ffc1"/><stop offset="0.5" stop-color="#99e2ff"/><stop offset="1" stop-color="#ffe780"/></linearGradient><linearGradient id="未命名的渐变_2-2" x1="-516.71" y1="-22.19" x2="-505.17" y2="-22.19" gradientTransform="translate(429.3 -268.97) rotate(-51)" xlink:href="#未命名的渐变_2"/><linearGradient id="未命名的渐变_2-3" x1="-779.73" y1="-386.4" x2="-768.2" y2="-386.4" gradientTransform="translate(519.07 -620.09) rotate(-87)" xlink:href="#未命名的渐变_2"/><linearGradient id="未命名的渐变_2-4" x1="-778.44" y1="-835.66" x2="-766.91" y2="-835.66" gradientTransform="translate(385.32 -956.91) rotate(-123)" xlink:href="#未命名的渐变_2"/><linearGradient id="未命名的渐变_2-5" x1="-513.33" y1="-1198.36" x2="-501.8" y2="-1198.36" gradientTransform="translate(79.14 -1150.79) rotate(-159)" xlink:href="#未命名的渐变_2"/><linearGradient id="未命名的渐变_2-6" x1="-85.67" y1="-1335.96" x2="-74.14" y2="-1335.96" gradientTransform="translate(-282.53 -1127.68) rotate(165)" xlink:href="#未命名的渐变_2"/><linearGradient id="未命名的渐变_2-7" x1="341.2" y1="-1195.9" x2="352.73" y2="-1195.9" gradientTransform="translate(-561.54 -896.39) rotate(129)" xlink:href="#未命名的渐变_2"/><linearGradient id="未命名的渐变_2-8" x1="604.22" y1="-831.69" x2="615.76" y2="-831.69" gradientTransform="translate(-651.32 -545.28) rotate(93)" xlink:href="#未命名的渐变_2"/><linearGradient id="未命名的渐变_2-9" x1="602.94" y1="-382.44" x2="614.47" y2="-382.44" gradientTransform="translate(-517.57 -208.45) rotate(57)" xlink:href="#未命名的渐变_2"/><linearGradient id="未命名的渐变_2-10" x1="337.83" y1="-19.74" x2="349.36" y2="-19.74" gradientTransform="translate(-211.39 -14.57) rotate(21)" xlink:href="#未命名的渐变_2"/></defs><path class="cls-1" d="M115.6,215.2a6.9,6.9,0,0,1-2.54-.48L62.44,195.05a7,7,0,0,1-3.35-2.72L29.47,146.46a7,7,0,0,1-1.11-4.14l2.72-54.54a7,7,0,0,1,1.54-4l34-42.35A6.89,6.89,0,0,1,70.27,39l52.28-14a6.92,6.92,0,0,1,1.81-.24,7.1,7.1,0,0,1,2.54.47l50.62,19.67a7,7,0,0,1,3.35,2.73l29.62,45.86a7,7,0,0,1,1.11,4.15l-2.72,54.53a7,7,0,0,1-1.53,4l-34,42.35a7,7,0,0,1-3.65,2.38l-52.28,14A6.92,6.92,0,0,1,115.6,215.2Z"/><path d="M124.36,27.78a4,4,0,0,1,1.45.27l50.62,19.67a4,4,0,0,1,1.92,1.55L208,95.14a4,4,0,0,1,.63,2.37L205.88,152a4.06,4.06,0,0,1-.87,2.31l-34,42.34a4,4,0,0,1-2.08,1.36l-52.29,14a4.06,4.06,0,0,1-1,.14,4,4,0,0,1-1.45-.27L63.53,192.26a4,4,0,0,1-1.92-1.56L32,144.83a4,4,0,0,1-.63-2.37l2.72-54.53a4,4,0,0,1,.87-2.3L69,43.28A4,4,0,0,1,71,41.92l52.29-14a4,4,0,0,1,1-.13m0-6a9.78,9.78,0,0,0-2.58.34l-52.29,14a9.94,9.94,0,0,0-5.21,3.39l-34,42.35a9.89,9.89,0,0,0-2.19,5.76l-2.73,54.53A10,10,0,0,0,27,148.09L56.57,194a9.94,9.94,0,0,0,4.78,3.9L112,217.52a9.9,9.9,0,0,0,3.62.68,10.21,10.21,0,0,0,2.58-.34l52.29-14a10,10,0,0,0,5.21-3.4l34-42.35a9.94,9.94,0,0,0,2.2-5.76l2.72-54.53A10,10,0,0,0,213,91.89L183.39,46a10,10,0,0,0-4.78-3.9L128,22.46a9.9,9.9,0,0,0-3.62-.68Z"/><path class="cls-2" d="M68.84,39.5s-9.5,41.28,29.28,57"/><path class="cls-3" d="M99.58,103.69a5.77,5.77,0,1,1,1.5-.2A5.89,5.89,0,0,1,99.58,103.69Z"/><path d="M99.59,94.15a3.77,3.77,0,0,1,1,7.41,3.72,3.72,0,0,1-1,.13,3.77,3.77,0,0,1-1-7.41,4.12,4.12,0,0,1,1-.13m0-4h0a7.78,7.78,0,0,0-7.51,9.78,7.78,7.78,0,0,0,7.5,5.76,7.55,7.55,0,0,0,2-.27,7.77,7.77,0,0,0-2-15.27Z"/><path class="cls-2" d="M31.29,84.94s16.58,39,57.18,28.9"/><path class="cls-4" d="M90.5,119.9A5.76,5.76,0,1,1,95,117.77,5.75,5.75,0,0,1,90.5,119.9Z"/><path d="M90.51,110.37a3.76,3.76,0,0,1,2.92,6.14,3.76,3.76,0,1,1-2.92-6.14m0-4h0a7.77,7.77,0,1,0,4.88,1.73,7.82,7.82,0,0,0-4.88-1.73Z"/><path class="cls-2" d="M27.63,143.78S64,165.57,90.87,133.55"/><path class="cls-5" d="M92.39,138.35a5.76,5.76,0,0,1,.3-11.52H93a5.76,5.76,0,0,1-.29,11.52Z"/><path d="M92.69,128.83h.2a3.77,3.77,0,0,1-.19,7.53h-.2a3.77,3.77,0,0,1,.19-7.53m0-4h0a7.77,7.77,0,0,0-.4,15.52h.41a7.77,7.77,0,0,0,.4-15.52Z"/><path class="cls-2" d="M59.25,193.53s42.19-3.72,45.15-45.45"/><path class="cls-6" d="M105.31,152a5.77,5.77,0,1,1,3.14-.93A5.77,5.77,0,0,1,105.31,152Z"/><path d="M105.31,142.47a3.77,3.77,0,1,1-2,.61,3.77,3.77,0,0,1,2-.61m0-4h0a7.77,7.77,0,1,0,6.51,3.54,7.76,7.76,0,0,0-6.51-3.54Z"/><path class="cls-2" d="M114.07,215.2s32-27.81,9.81-63.31"/><path class="cls-7" d="M123.54,155.63a5.88,5.88,0,0,1-2.07-.38,5.82,5.82,0,0,1-3.2-3,5.67,5.67,0,0,1-.11-4.41,5.79,5.79,0,0,1,5.38-3.7,5.66,5.66,0,0,1,2.07.38,5.77,5.77,0,0,1-2.07,11.15Z"/><path d="M123.54,146.1a3.76,3.76,0,1,1-3.52,2.41,3.75,3.75,0,0,1,3.52-2.41m0-4h0a7.76,7.76,0,0,0-2.78,15,7.58,7.58,0,0,0,2.78.52,7.81,7.81,0,0,0,7.25-5,7.76,7.76,0,0,0-7.25-10.55Z"/><path class="cls-2" d="M171.16,200.5s9.5-41.28-29.28-57"/><path class="cls-8" d="M140.41,147.85a5.77,5.77,0,0,1-5.56-4.28,5.76,5.76,0,0,1,4.07-7.06,5.89,5.89,0,0,1,1.5-.2,5.76,5.76,0,0,1,5,8.65,5.71,5.71,0,0,1-3.5,2.69A5.83,5.83,0,0,1,140.41,147.85Z"/><path d="M140.42,138.31a3.77,3.77,0,0,1,1,7.41,4.12,4.12,0,0,1-1,.13,3.77,3.77,0,0,1-1-7.41,3.72,3.72,0,0,1,1-.13m0-4h0a7.55,7.55,0,0,0-2,.27,7.77,7.77,0,0,0,2,15.27,7.78,7.78,0,0,0,7.51-9.78,7.78,7.78,0,0,0-7.5-5.76Z"/><path class="cls-2" d="M208.71,155.06s-16.58-39-57.18-28.9"/><path class="cls-9" d="M149.49,131.63a5.76,5.76,0,1,1,4.49-2.14A5.76,5.76,0,0,1,149.49,131.63Z"/><path d="M149.5,122.1a3.77,3.77,0,0,1,0,7.53,3.76,3.76,0,0,1-2.92-6.14,3.74,3.74,0,0,1,2.93-1.39m0-4h0a7.76,7.76,0,0,0-4.89,13.8,7.82,7.82,0,0,0,4.88,1.73,7.77,7.77,0,0,0,0-15.53Z"/><path class="cls-2" d="M212.37,96.22s-36.32-21.79-63.24,10.23"/><path class="cls-10" d="M147,113.16a5.76,5.76,0,0,1,.29-11.52h.31a5.76,5.76,0,0,1-.3,11.52Z"/><path d="M147.3,103.64h.2a3.77,3.77,0,0,1-.19,7.53h-.2a3.77,3.77,0,0,1,.19-7.53m0-4h0a7.77,7.77,0,0,0-.4,15.52h.41a7.77,7.77,0,0,0,.4-15.52Z"/><path class="cls-2" d="M180.75,46.47s-42.19,3.72-45.15,45.45"/><path class="cls-11" d="M134.69,99.53a5.77,5.77,0,0,1-3.14-10.61,5.82,5.82,0,0,1,3.14-.93,5.77,5.77,0,0,1,3.14,10.61A5.82,5.82,0,0,1,134.69,99.53Z"/><path d="M134.69,90a3.77,3.77,0,1,1-2.05.61,3.77,3.77,0,0,1,2.05-.61m0-4h0a7.77,7.77,0,1,0,6.51,3.54A7.74,7.74,0,0,0,134.69,86Z"/><path class="cls-2" d="M125.93,24.8S94,52.61,116.12,88.11"/><path class="cls-12" d="M116.46,95.91a5.67,5.67,0,0,1-2.07-.39,5.77,5.77,0,0,1,2.07-11.15,5.88,5.88,0,0,1,2.07.38,5.77,5.77,0,0,1-2.07,11.16Z"/><path d="M116.46,86.37a3.76,3.76,0,1,1-3.52,2.42,3.75,3.75,0,0,1,3.52-2.42m0-4h0a7.81,7.81,0,0,0-7.25,5,7.76,7.76,0,0,0,7.25,10.55,7.76,7.76,0,0,0,2.78-15,7.58,7.58,0,0,0-2.78-.52Z"/></svg>