<svg id="图层_1" data-name="图层 1" xmlns="http://www.w3.org/2000/svg" xmlns:xlink="http://www.w3.org/1999/xlink" viewBox="0 0 240 240"><defs><style>.cls-1{fill:url(#未命名的渐变_2);}.cls-2{fill:none;stroke:#000;stroke-miterlimit:10;stroke-width:6px;}.cls-3{fill:url(#未命名的渐变_2-2);}.cls-4{fill:url(#未命名的渐变_2-3);}.cls-5{fill:url(#未命名的渐变_2-4);}.cls-6{fill:url(#未命名的渐变_2-5);}</style><linearGradient id="未命名的渐变_2" x1="120" y1="222.05" x2="120" y2="17.14" gradientTransform="translate(120 -49.71) rotate(45)" gradientUnits="userSpaceOnUse"><stop offset="0" stop-color="#83ffc1"/><stop offset="0.5" stop-color="#99e2ff"/><stop offset="1" stop-color="#ffe780"/></linearGradient><linearGradient id="未命名的渐变_2-2" x1="79.25" y1="88.76" x2="99.26" y2="88.76" gradientTransform="matrix(1, 0, 0, 1, 0, 0)" xlink:href="#未命名的渐变_2"/><linearGradient id="未命名的渐变_2-3" x1="141.24" y1="88.76" x2="161.25" y2="88.76" gradientTransform="matrix(1, 0, 0, 1, 0, 0)" xlink:href="#未命名的渐变_2"/><linearGradient id="未命名的渐变_2-4" x1="141.24" y1="151.24" x2="161.25" y2="151.24" gradientTransform="matrix(1, 0, 0, 1, 0, 0)" xlink:href="#未命名的渐变_2"/><linearGradient id="未命名的渐变_2-5" x1="79.25" y1="151.05" x2="99.26" y2="151.05" gradientTransform="matrix(1, 0, 0, 1, 0, 0)" xlink:href="#未命名的渐变_2"/></defs><rect class="cls-1" x="47.55" y="47.55" width="144.9" height="144.9" transform="translate(-49.71 120) rotate(-45)"/><polyline class="cls-2" points="151.24 88.76 120 120 151.24 151.24"/><polyline class="cls-2" points="89.25 88.76 120 120 89.25 151.05"/><path d="M117.22,16.15,16.15,117.22a3.94,3.94,0,0,0,0,5.56L117.22,223.85a3.94,3.94,0,0,0,5.56,0L223.85,122.78a3.94,3.94,0,0,0,0-5.56L122.78,16.15A3.94,3.94,0,0,0,117.22,16.15Zm7,40.71L123,55.64v-31l92.39,92.39h-31l-1.22-1.22ZM179,120l-59,59h0L61,120h0l59-59ZM120,21.71Zm-3,2.95v31l-1.22,1.22-59,59-1.22,1.22h-31ZM21.71,120Zm2.95,3h31l1.22,1.22,59,59,1.22,1.22v31ZM120,218.29Zm3-2.95v-31l1.22-1.22,59-59,1.22-1.22h31Z"/><path class="cls-3" d="M89.25,98.76a10,10,0,1,1,10-10A10,10,0,0,1,89.25,98.76Z"/><path d="M89.25,80.75a8,8,0,1,1-8,8,8,8,0,0,1,8-8m0-4a12,12,0,1,0,12,12,12,12,0,0,0-12-12Z"/><path class="cls-4" d="M151.24,98.76a10,10,0,1,1,10-10A10,10,0,0,1,151.24,98.76Z"/><path d="M151.24,80.75a8,8,0,1,1-8,8,8,8,0,0,1,8-8m0-4a12,12,0,1,0,12,12,12,12,0,0,0-12-12Z"/><path class="cls-5" d="M151.24,161.25a10,10,0,1,1,10-10A10,10,0,0,1,151.24,161.25Z"/><path d="M151.24,143.24a8,8,0,1,1-8,8,8,8,0,0,1,8-8m0-4a12,12,0,1,0,12,12,12,12,0,0,0-12-12Z"/><path class="cls-6" d="M89.25,161.05a10,10,0,1,1,10-10A10,10,0,0,1,89.25,161.05Z"/><path d="M89.25,143a8,8,0,1,1-8,8,8,8,0,0,1,8-8m0-4a12,12,0,1,0,12,12,12,12,0,0,0-12-12Z"/></svg>