<svg id="图层_1" data-name="图层 1" xmlns="http://www.w3.org/2000/svg" xmlns:xlink="http://www.w3.org/1999/xlink" viewBox="0 0 240 240"><defs><style>.cls-1{fill:url(#未命名的渐变_2);}.cls-2{fill:url(#未命名的渐变_2-2);}</style><linearGradient id="未命名的渐变_2" x1="120" y1="204.28" x2="120" y2="34.42" gradientUnits="userSpaceOnUse"><stop offset="0" stop-color="#83ffc1"/><stop offset="0.5" stop-color="#99e2ff"/><stop offset="1" stop-color="#ffe780"/></linearGradient><linearGradient id="未命名的渐变_2-2" x1="89.53" y1="102.81" x2="150.47" y2="102.81" xlink:href="#未命名的渐变_2"/></defs><polygon class="cls-1" points="60.38 208.63 23.53 95.22 120 25.13 216.47 95.22 179.62 208.63 60.38 208.63"/><path d="M117.65,23.13,22.35,92.37a4,4,0,0,0-1.45,4.47l36.4,112a4,4,0,0,0,3.8,2.76H178.9a4,4,0,0,0,3.8-2.76l36.4-112a4,4,0,0,0-1.45-4.47l-95.3-69.24A4,4,0,0,0,117.65,23.13ZM120,28.84l3.15,2.29h0l86.64,63L156.25,133l-5.11,3.71L120,159.31,88.86,136.69,83.75,133,30.21,94.08l86.64-62.95h0Zm50.39,167.09L125.1,163l28-20.33ZM114.9,163,69.61,195.93l17.3-53.24ZM28.26,100.08,81.8,139,61.35,201.92ZM66.45,205.63,120,166.73l53.54,38.9Zm112.2-3.7L158.2,139l53.54-38.9Z"/><path class="cls-2" d="M120.07,129.7c-3.77-2.22-17.63-13.61-23.1-20.65l-.16-.2-.19-.17c-3.78-3.44-7.09-10.41-7.09-14.9,0-9.85,7.09-17.85,15.82-17.85,5.92,0,10.46,6,12.13,8.59L120,88.41l2.52-3.89c1.67-2.58,6.21-8.59,12.13-8.59,8.72,0,15.82,8,15.82,17.85,0,4.58-3.29,11.44-7.18,15l-.2.18-.16.2C137.33,116.39,123.81,127.52,120.07,129.7Z"/><path d="M134.65,78.93c7.07,0,12.82,6.66,12.82,14.85,0,3.36-2.65,9.54-6.21,12.78l-.38.35-.32.41c-4.7,6.06-15.7,15.4-20.48,18.79-4.85-3.44-16.15-13-20.75-18.9l-.31-.4-.38-.35c-3.14-2.86-6.11-9-6.11-12.68,0-8.19,5.75-14.85,12.82-14.85,4.57,0,8.51,5.53,9.61,7.23l5,7.76,5-7.76c1.1-1.7,5-7.23,9.62-7.23m0-6c-7.23,0-12.42,6.52-14.65,10-2.24-3.44-7.42-10-14.65-10-10.38,0-18.82,9.35-18.82,20.85,0,5.37,3.64,13.08,8.07,17.12,6.12,7.86,23.34,22,25.46,22s19-13.89,25.25-21.94c4.5-4.1,8.16-11.82,8.16-17.21,0-11.5-8.44-20.85-18.82-20.85Z"/></svg>