<svg id="图层_1" data-name="图层 1" xmlns="http://www.w3.org/2000/svg" xmlns:xlink="http://www.w3.org/1999/xlink" viewBox="0 0 240 240"><defs><style>.cls-1{fill:url(#未命名的渐变_2);}</style><linearGradient id="未命名的渐变_2" x1="120" y1="214.74" x2="120" y2="31.42" gradientUnits="userSpaceOnUse"><stop offset="0" stop-color="#83ffc1"/><stop offset="0.5" stop-color="#99e2ff"/><stop offset="1" stop-color="#ffe780"/></linearGradient></defs><polygon class="cls-1" points="41.26 170.88 28.34 100.3 69.12 41.26 139.7 28.34 198.74 69.12 211.66 139.7 170.88 198.74 100.3 211.66 41.26 170.88"/><path d="M201.32,67.45h0L144.22,28a11.33,11.33,0,0,0-8.5-1.82L72.08,37.83a11.35,11.35,0,0,0-7.3,4.72L28,95.78a11.33,11.33,0,0,0-1.82,8.5l11.64,63.64a11.35,11.35,0,0,0,4.72,7.3L95.78,212a11.33,11.33,0,0,0,8.5,1.82l63.64-11.64a11.35,11.35,0,0,0,7.3-4.72L212,144.22a11.33,11.33,0,0,0,1.82-8.5Zm-30.22,126-8-43.64,43.64-8-32.25,46.7-3.41,4.93Zm-5.16,3.34-61.72,11.29,25.21-36.5,36.51,25.21ZM46.58,171.1l43.64-8,8,43.64ZM32,104.22l36.5,25.21L43.24,165.94Zm37-57.64,8,43.64-43.64,8,6-8.76ZM184.76,62.91l8.66,6h0l-43.64,8-8-43.64ZM91.48,138.43,86.8,112.86l14.77-21.38,25.57-4.68,21.38,14.77,4.68,25.57-14.77,21.38-25.57,4.68ZM105,154.65l-10.18,1.86-1.86-10.18ZM84.87,133.86,76.36,128l5.88-8.51ZM83.49,94.79l10.18-1.87-8.32,12Zm-11.81,30-31.83-22,38.06-7,2.88,15.76Zm1.45,7.9,13.18,9.11,2.89,15.76-38.06,7Zm33-47.79L112,76.36l8.52,5.88Zm28.9.49,10.17-1.87,1.87,10.18Zm20.09,20.78,8.51,5.88-5.88,8.51Zm1.38,39.07-10.18,1.87,8.31-12Zm-2.82-47L150.8,82.47l38.06-7-22,31.83Zm-19.83,56.9L128,163.64l-8.51-5.88Zm7.91-1.44,15.76-2.89,7,38.06-31.83-22Zm17.44-25.26,9.11-13.19,31.83,22-38.06,7Zm12.34-17.86,25.21-36.51,11.29,61.72ZM144.19,77.91l-15.76,2.88-13.19-9.11,22-31.83Zm-8.41-46-25.21,36.5L74.06,43.24l30.86-5.65ZM107.34,73.13,98.23,86.31,82.47,89.2l-7-38.06Zm-11.53,89,15.76-2.88,13.19,9.11-22,31.83Z"/></svg>