<svg xmlns="http://www.w3.org/2000/svg" xmlns:xlink="http://www.w3.org/1999/xlink" viewBox="0 0 590 60" class="design-iconfont">
  <defs>
    <path id="tn4mp7b7w__fnowysjp5a" d="M0 0L86.7010604 0 86.7010604 57.5814433 0 57.5814433z"/>
    <path id="tn4mp7b7w__nex5og8vuc" d="M0 0L50.5970545 0 50.5970545 59.9999116 0 59.9999116z"/>
    <path id="tn4mp7b7w__s6v42tcf0e" d="M-1.0045965e-13 0L49.9747865 0 49.9747865 59.9996465 -1.0045965e-13 59.9996465z"/>
  </defs>
  <g fill="none" fill-rule="evenodd">
    <g transform="translate(0 1.209455)">
      <mask id="tn4mp7b7w__022pdqp5pb" fill="#fff">
        <use xlink:href="#tn4mp7b7w__fnowysjp5a"/>
      </mask>
      <path d="M86.7010604,0 L76.9632106,57.5814433 L49.6583505,57.5814433 C47.1576141,48.7343152 44.9520177,38.669514 43.0389102,27.3852725 C42.1667452,32.2232695 40.1325773,42.2889543 36.9390574,57.5814433 L9.78972018,57.5814433 L-0.000265095729,0 L21.2462739,0 L23.557025,20.0907216 L25.791782,39.5134021 C26.5985567,29.4618557 28.6141679,16.2918999 31.8394993,0 L54.5493667,0 C54.8515758,1.68335788 55.6459794,8.01472754 56.9343446,18.9923417 L59.3502504,40.9007364 C60.594433,26.9620029 62.6286009,13.3281296 65.4545214,0 L86.7010604,0 Z" fill="#000" mask="url(#tn4mp7b7w__022pdqp5pb)"/>
    </g>
    <path fill="#000" d="M91.0127541 1.20945508L127.480206 1.20945508 127.480206 12.7331664 112.883152 12.7331664 112.883152 23.6515758 126.545302 23.6515758 126.545302 34.6053314 112.883152 34.6053314 112.883152 47.267187 128.934698 47.267187 128.934698 58.7908984 91.0127541 58.7908984z"/>
    <path d="M157.090781,32.8272459 L157.090781,48.9388807 C160.17296,48.8673049 162.13732,48.5359352 162.98651,47.9430044 C163.834816,47.3509573 164.258969,45.8920471 164.258969,43.5680412 L164.258969,38.1980854 C164.258969,35.7326951 163.878115,34.2384389 163.116406,33.7162003 C162.354698,33.195729 160.345272,32.8988218 157.090781,32.8272459 L157.090781,32.8272459 Z M157.090781,11.0611193 L157.090781,23.8643594 C158.025685,23.8413844 158.752931,23.8290133 159.272518,23.8290133 C161.41891,23.8290133 162.786804,23.4684831 163.3762,22.7447717 C163.964713,22.0210604 164.258969,19.95243 164.258969,16.5379971 C164.258969,14.7362297 164.016848,13.4743741 163.532607,12.7506627 C163.046598,12.0269514 162.414786,11.5709867 161.636289,11.3810015 C160.856907,11.1918999 159.341443,11.0849779 157.090781,11.0611193 L157.090781,11.0611193 Z M135.220383,1.20927835 L157.038645,1.20927835 C163.93025,1.20927835 169.150869,1.57687776 172.701384,2.31119293 C176.250133,3.0455081 179.116701,4.53269514 181.298439,6.7718704 C183.480177,9.01104566 184.571487,12.6181149 184.571487,17.5939617 C184.571487,20.9589102 183.800059,23.3050074 182.258969,24.6322533 C180.717879,25.9586156 177.678999,26.9774669 173.142327,27.6879234 C178.198586,28.4708395 181.627158,29.7698085 183.428041,31.5848306 C185.228041,33.3998527 186.129367,36.1815906 186.129367,39.9300442 L186.129367,45.2681885 C186.129367,49.1589102 185.479882,52.0413844 184.181797,53.9156112 C182.882828,55.789838 180.813314,57.071134 177.973255,57.7586156 C175.133196,58.4469809 169.315228,58.7907216 160.519352,58.7907216 L135.220383,58.7907216 L135.220383,1.20927835 Z" fill="#000"/>
    <path d="M232.778527,26.1588513 C235.964094,26.8949337 238.337585,28.0984683 239.895464,29.7712224 C241.453343,31.4430928 242.232725,35.3638586 242.232725,41.5317526 C242.232725,46.1099558 241.471016,49.6631222 239.947599,52.1894845 C238.423299,54.7149632 235.791782,56.6369072 232.051281,57.9535493 C228.310781,59.2701915 223.514315,59.9285125 217.661885,59.9285125 C211.012401,59.9285125 205.791782,59.1641532 201.999146,57.6345508 C198.207393,56.1058321 195.713726,54.232489 194.519028,52.015405 C193.32433,49.7983211 192.726981,45.9508984 192.726981,40.4740206 L192.726981,35.9214433 L213.713726,35.9214433 L213.713726,45.2757879 C213.713726,47.7650368 213.929337,49.3476583 214.363211,50.0236524 C214.795317,50.6987629 215.75673,51.0372018 217.245685,51.0372018 C218.873373,51.0372018 219.94701,50.6103976 220.466598,49.7567894 C220.986186,48.9031811 221.245979,46.6746097 221.245979,43.0701915 L221.245979,39.0866863 C221.245979,36.8819735 220.882798,35.2701915 220.155552,34.2504566 C219.428306,33.2307216 218.353785,32.5609131 216.934639,32.2401473 C215.513726,31.9211487 212.761149,31.7364654 208.67514,31.6896318 L208.67514,23.3311635 C213.661591,23.3311635 216.74377,23.2012666 217.921679,22.9397054 C219.098704,22.679028 219.94701,22.1099558 220.466598,21.232489 C220.986186,20.3559057 221.245979,18.9800589 221.245979,17.1075994 L221.245979,13.9061267 C221.245979,11.8913991 220.942003,10.5632695 220.336701,9.9226215 C219.730515,9.28285714 218.786775,8.96297496 217.505479,8.96297496 C216.050987,8.96297496 215.05511,9.30053019 214.518733,9.9765243 C213.981473,10.6525184 213.713726,12.0928719 213.713726,14.2975847 L213.713726,19.0277761 L192.726981,19.0277761 L192.726981,14.1199705 C192.726981,8.61923417 194.561443,4.90259205 198.233019,2.97004418 C201.903711,1.03749632 207.740236,0.0716642121 215.739941,0.0716642121 C225.747305,0.0716642121 232.536406,1.41039764 236.102828,4.08698085 C239.670133,6.76444772 241.453343,10.4846244 241.453343,15.247511 C241.453343,18.4701915 240.812695,20.797732 239.532283,22.2318999 C238.250103,23.6651841 235.99944,24.9738733 232.778527,26.1588513" fill="#000"/>
    <path d="M300.570398,22.4067747 L278.7,22.4067747 L278.7,17.1782032 C278.7,13.8830633 278.492342,11.8206186 278.077025,10.9899853 C277.661708,10.1602356 276.674669,9.744919 275.115906,9.744919 C273.765685,9.744919 272.846686,10.1010309 272.362445,10.8123711 C271.87732,11.5237113 271.635199,13.3493373 271.635199,16.2892489 L271.635199,43.9237113 C271.635199,46.5083947 271.87732,48.2094256 272.362445,49.0276878 C272.846686,49.8459499 273.816937,50.255081 275.272312,50.255081 C276.864654,50.255081 277.947128,49.7920471 278.517968,48.8677467 C279.089691,47.9425626 279.375994,46.1407953 279.375994,43.4615611 L279.375994,36.6326951 L274.960383,36.6326951 L274.960383,27.8836524 L300.570398,27.8836524 L300.570398,58.7902798 L286.826951,58.7902798 L284.804271,54.6645066 C283.314433,56.443299 281.433137,57.7767305 279.163918,58.6656848 C276.893814,59.5555228 274.216348,60 271.132401,60 C267.45729,60 264.018115,59.3893962 260.812224,58.1681885 C257.606333,56.9469809 255.17187,55.4359352 253.507953,53.6332842 C251.844035,51.8315169 250.80486,49.9405007 250.38866,47.9602356 C249.973343,45.9817378 249.765685,43.011782 249.765685,39.0512518 L249.765685,21.9446244 C249.765685,16.4438881 250.197791,12.4480118 251.064654,9.95876289 C251.92975,7.46863034 254.41458,5.18703976 258.519146,3.11222386 C262.622828,1.03740795 267.929161,0 274.440795,0 C280.847275,0 286.163328,0.901325479 290.388954,2.70309278 C294.613697,4.50574374 297.367158,6.64506627 298.648454,9.12282769 C299.928866,11.6005891 300.570398,15.1988218 300.570398,19.9175258 L300.570398,22.4067747 Z" fill="#000"/>
    <g transform="translate(308.415199)">
      <mask id="tn4mp7b7w__g3mmtqased" fill="#fff">
        <use xlink:href="#tn4mp7b7w__nex5og8vuc"/>
      </mask>
      <path d="M28.7266568,16.0046244 C28.7266568,13.3253903 28.510162,11.6119882 28.0771723,10.8653019 C27.6441826,10.1186156 26.7525773,9.74571429 25.4023564,9.74571429 C24.2589102,9.74571429 23.3840943,10.0470398 22.7787923,10.6523417 C22.1726068,11.2567599 21.869514,13.0408542 21.869514,16.0046244 L21.869514,42.8924006 C21.869514,46.2352577 22.0683358,48.2985862 22.466863,49.0815022 C22.8645066,49.8635346 23.7923417,50.2549926 25.2468336,50.2549926 C26.7349043,50.2549926 27.6874816,49.8043299 28.1027982,48.9030044 C28.5189985,48.0025626 28.7266568,45.8570545 28.7266568,42.4655965 L28.7266568,16.0046244 Z M50.5970545,34.9262739 C50.5970545,40.7115464 50.397349,44.8072754 49.9997054,47.213461 C49.6011782,49.6205302 48.3543446,51.8199411 46.2592047,53.8116937 C44.1631811,55.8034462 41.3319588,57.3321649 37.7655376,58.3996171 C34.1982327,59.4661856 30.0424153,59.9999116 25.2980854,59.9999116 C20.7958763,59.9999116 16.7531664,59.4953461 13.1681885,58.4879823 C9.58409426,57.4806186 6.70073638,55.9695729 4.51899853,53.9539617 C2.33726068,51.9383505 1.03917526,49.7451252 0.622974963,47.3742857 C0.207658321,45.0034462 0,40.8538144 0,34.9262739 L0,25.074433 C0,19.2891605 0.197938144,15.1934315 0.597349043,12.7854786 C0.994992636,10.3801767 2.24094256,8.18076583 4.33696613,6.18901325 C6.43210604,4.19726068 9.26332842,2.66765832 12.8306333,1.60020619 C16.3970545,0.533637703 20.5528719,-8.8365243e-05 25.2980854,-8.8365243e-05 C29.7994109,-8.8365243e-05 33.8438881,0.50359352 37.4279823,1.51184094 C41.0120766,2.52008837 43.8954345,4.03113402 46.0771723,6.04586156 C48.2589102,8.06147275 49.5578792,10.2555817 49.9731959,12.6264212 C50.3893962,14.9972607 50.5970545,19.1468925 50.5970545,25.074433 L50.5970545,34.9262739 Z" fill="#000" mask="url(#tn4mp7b7w__g3mmtqased)"/>
    </g>
    <path fill="#000" d="M407.790928 1.20945508L407.790928 47.267187 421.089013 47.267187 421.089013 58.7908984 385.92053 58.7908984 385.92053 1.20945508z"/>
    <path d="M455.2519,38.2336082 C454.144683,31.7113697 453.033932,23.6506922 451.92053,14.0489249 C449.691959,25.0742563 448.293137,33.136701 447.723181,38.2336082 L455.2519,38.2336082 Z M466.842769,1.20945508 L479.349102,58.7908984 L456.998881,58.7908984 L455.824507,48.4406775 L448.001532,48.4406775 L446.686657,58.7908984 L424.076642,58.7908984 L435.232754,1.20945508 L466.842769,1.20945508 Z" fill="#000"/>
    <path d="M504.933579,32.8272459 L504.933579,48.9388807 C508.015758,48.8673049 509.980118,48.5359352 510.829308,47.9430044 C511.677614,47.3509573 512.101767,45.8920471 512.101767,43.5680412 L512.101767,38.1980854 C512.101767,35.7326951 511.720913,34.2384389 510.959205,33.7162003 C510.197496,33.195729 508.188071,32.8988218 504.933579,32.8272459 L504.933579,32.8272459 Z M504.933579,11.0611193 L504.933579,23.8643594 C505.868483,23.8413844 506.595729,23.8290133 507.115317,23.8290133 C509.261708,23.8290133 510.629602,23.4684831 511.218999,22.7447717 C511.807511,22.0210604 512.101767,19.95243 512.101767,16.5379971 C512.101767,14.7362297 511.859647,13.4743741 511.375405,12.7506627 C510.889396,12.0269514 510.257585,11.5709867 509.479087,11.3810015 C508.699705,11.1918999 507.184242,11.0849779 504.933579,11.0611193 L504.933579,11.0611193 Z M483.063181,1.20927835 L504.881443,1.20927835 C511.773049,1.20927835 516.993667,1.57687776 520.544183,2.31119293 C524.092931,3.0455081 526.959499,4.53269514 529.141237,6.7718704 C531.322975,9.01104566 532.414286,12.6181149 532.414286,17.5939617 C532.414286,20.9589102 531.642857,23.3050074 530.101767,24.6322533 C528.560677,25.9586156 525.521797,26.9774669 520.985125,27.6879234 C526.041384,28.4708395 529.469956,29.7698085 531.270839,31.5848306 C533.070839,33.3998527 533.972165,36.1815906 533.972165,39.9300442 L533.972165,45.2681885 C533.972165,49.1589102 533.32268,52.0413844 532.024595,53.9156112 C530.725626,55.789838 528.656112,57.071134 525.816053,57.7586156 C522.975994,58.4469809 517.158027,58.7907216 508.36215,58.7907216 L483.063181,58.7907216 L483.063181,1.20927835 Z" fill="#000"/>
    <g transform="translate(539.997526 .000353)">
      <mask id="tn4mp7b7w__w3lyv13ukf" fill="#fff">
        <use xlink:href="#tn4mp7b7w__s6v42tcf0e"/>
      </mask>
      <path d="M48.1564065,18.6362297 L27.8447717,18.6362297 L27.8447717,14.3681885 C27.8447717,12.3773196 27.5849779,11.1083947 27.0653903,10.5631811 C26.5458027,10.0179676 25.6798233,9.744919 24.4683358,9.744919 C23.1516937,9.744919 22.156701,10.1125184 21.4815906,10.8486009 C20.8055965,11.5846834 20.4680412,12.6989691 20.4680412,14.194109 C20.4680412,16.1151694 20.8471281,17.5634757 21.6070692,18.5354934 C22.3316642,19.5083947 24.391458,20.6818851 27.7873343,22.0559647 C37.5225331,26.0120766 43.6541973,29.2586156 46.182327,31.7955817 C48.7095729,34.3334315 49.9749632,38.422975 49.9749632,44.0659794 C49.9749632,48.167894 49.2733432,51.1908689 47.8701031,53.1357879 C46.4677467,55.0798233 43.7575847,56.7092784 39.7405007,58.0259205 C35.7225331,59.3416789 31.0480118,60 25.7151694,60 C19.8618557,60 14.8656848,59.2400589 10.7275405,57.7228277 C6.58851252,56.2064801 3.87923417,54.2730486 2.59793814,51.9260677 C1.31664212,49.5790869 0.675994109,46.2477172 0.675994109,41.9319588 L0.675994109,38.1622975 L20.9876289,38.1622975 L20.9876289,45.1687776 C20.9876289,47.3266568 21.2730486,48.7131075 21.8447717,49.3298969 C22.4164948,49.9466863 23.4291605,50.2541973 24.8836524,50.2541973 C26.3381443,50.2541973 27.4197349,49.8627393 28.1301915,49.0807069 C28.8397644,48.2977909 29.1949926,47.1366716 29.1949926,45.5955817 C29.1949926,42.2050074 28.5198822,39.9879234 27.1696613,38.9443299 C25.7840943,37.90162 22.3723122,36.1590574 16.9351988,33.7157585 C11.4980854,31.2503682 7.89631811,29.460972 6.12989691,28.3458027 C4.36435935,27.2315169 2.90103093,25.6904271 1.74079529,23.7225331 C0.580559647,21.7546392 -1.0045965e-13,19.240648 -1.0045965e-13,16.182327 C-1.0045965e-13,11.7720177 0.822680412,8.54756996 2.46804124,6.50810015 C4.11251841,4.46951399 6.77142857,2.87540501 10.4421208,1.72488954 C14.112813,0.575257732 18.5460972,0 23.7410898,0 C29.420324,0 34.2600884,0.628276878 38.2603829,1.88483063 C42.2606775,3.14138439 44.9098675,4.72400589 46.2079529,6.63269514 C47.5069219,8.54138439 48.1564065,11.7843888 48.1564065,16.3599411 L48.1564065,18.6362297 Z" fill="#000" mask="url(#tn4mp7b7w__w3lyv13ukf)"/>
    </g>
  </g>
</svg>
