<svg xmlns="http://www.w3.org/2000/svg" xmlns:xlink="http://www.w3.org/1999/xlink" viewBox="0 0 504 60" class="design-iconfont">
  <defs>
    <path id="s816jj8wsa" d="M-1.03226548e-13 0L73.7284504 0 73.7284504 59.7820823 -1.03226548e-13 59.7820823z"/>
  </defs>
  <g fill="none" fill-rule="evenodd">
    <path fill="#000" d="M81.283293 0.508474576L75.2542373 27.5293584 68.8610775 0.508474576 44.9627724 0.508474576 38.5714286 27.5293584 32.5414649 0.508474576 2.84217094e-14 0.508474576 16.8513923 59.4915254 49.9031477 59.4915254 56.8765133 34.503632 63.8489709 59.4915254 96.9007264 59.4915254 113.825666 0.508474576z"/>
    <path fill="#000" d="M117.601725 0.508474576L117.601725 59.4915254 181.524243 59.4915254 181.524243 46.0532688 149.853541 46.0532688 149.853541 33.8498789 178.545127 33.8498789 178.545127 20.4107143 149.853541 20.4107143 149.853541 13.9467312 181.524243 13.9467312 181.524243 0.508474576z"/>
    <path d="M32.251816,45.9807203 L35.811138,45.9807203 C37.6016949,45.9807203 38.8256659,45.6783596 39.4794189,45.07273 C40.1331719,44.4671005 40.4600484,43.3657082 40.4600484,41.7676453 L40.4600484,39.3705508 C40.4600484,37.8215194 40.1331719,36.731023 39.4794189,36.1017857 C38.8256659,35.4725484 37.6016949,35.1574758 35.811138,35.1574758 L32.251816,35.1574758 L32.251816,45.9807203 Z M32.251816,13.946822 L32.251816,22.3003329 L35.811138,22.3003329 C37.5054479,22.3003329 38.7039952,21.9861683 39.4067797,21.356023 C40.1077482,20.7276937 40.4600484,19.6617131 40.4600484,18.1598971 C40.4600484,16.5618341 40.1331719,15.4604419 39.4794189,14.8548123 C38.8256659,14.2500908 37.6016949,13.946822 35.811138,13.946822 L32.251816,13.946822 Z M2.58066369e-14,59.4916162 L2.58066369e-14,0.508565375 L52.2276029,0.508565375 C56.0048426,0.508565375 59.2245763,0.775514528 61.8886199,1.30759685 C64.5508475,1.84058717 66.7191283,2.66322639 68.3898305,3.77733051 C70.0605327,4.89234262 71.2826877,6.34421913 72.0581114,8.13568402 C72.8317191,9.92714891 73.220339,12.0582022 73.220339,14.5279358 C73.220339,18.450454 72.190678,21.453178 70.1331719,23.5351998 C68.0738499,25.6181295 64.6234867,27.0945218 59.7820823,27.9661925 C64.4782082,28.7897397 67.8922518,30.4604419 70.0242131,32.978299 C72.1543584,35.4970642 73.220339,39.2743039 73.220339,44.3100182 C73.220339,49.8787228 71.6458838,53.8021489 68.4987893,56.0775726 C65.3498789,58.3539044 59.9273608,59.4916162 52.2276029,59.4916162 L2.58066369e-14,59.4916162 Z" fill="#000" transform="translate(190.241041)"/>
    <path d="M151.815254,47.2881356 C151.815254,51.6955206 150.191768,54.9152542 146.948426,56.9491525 C143.703269,58.9830508 138.594915,60 131.62155,60 L98.3527845,60 C91.6699758,60 86.6451574,59.0438862 83.2801453,57.1307506 C79.9133172,55.218523 78.2317191,52.4455206 78.2317191,48.8135593 L78.2317191,38.5714286 L111.282567,38.5714286 L111.282567,42.2760291 C111.282567,43.7288136 111.584019,44.7947942 112.190557,45.472155 C112.795278,46.1513317 113.799516,46.4891041 115.205085,46.4891041 C116.608838,46.4891041 117.625787,46.1622276 118.255932,45.5084746 C118.884262,44.8547215 119.200242,43.777845 119.200242,42.2760291 L119.200242,38.7893462 C119.200242,35.9809322 117.358838,34.5762712 113.679661,34.5762712 L106.561017,34.5762712 L106.561017,21.2106538 L113.171186,21.2106538 C117.189952,21.2106538 119.200242,19.8559322 119.200242,17.1428571 C119.200242,16.0777845 118.811622,15.1943099 118.038015,14.4915254 C117.262591,13.7896489 116.294673,13.4382567 115.132446,13.4382567 C113.872155,13.4382567 112.855206,13.777845 112.081598,14.4552058 C111.306174,15.1334746 110.91937,16.0051453 110.91937,17.0702179 L110.91937,18.1598063 L78.2317191,18.1598063 L78.2317191,11.1864407 C78.2317191,7.55447942 79.9387409,4.78238499 83.3527845,2.86924939 C86.7668281,0.957021792 91.7662228,0 98.3527845,0 L131.62155,0 C138.255327,0 143.280145,0.957021792 146.694189,2.86924939 C150.108232,4.78238499 151.815254,7.55447942 151.815254,11.1864407 L151.815254,16.125908 C151.815254,19.1767554 150.785593,21.6464891 148.728087,23.535109 C146.669673,25.4237288 143.291041,26.9491525 138.594915,28.1113801 C141.064649,28.5472155 143.134867,29.1047215 144.805569,29.7820823 C146.476271,30.4603511 147.830993,31.3202179 148.873366,32.3607748 C149.913923,33.4031477 150.663923,34.68523 151.125182,36.2106538 C151.584625,37.7360775 151.815254,39.5402542 151.815254,41.622276 L151.815254,47.2881356 Z" fill="#000" transform="translate(190.241041)"/>
    <path d="M200.046429,38.6440678 L195.542797,38.6440678 L195.542797,25.496368 L232.806719,25.496368 L232.879358,49.031477 C233.169915,56.2953995 228.399334,59.9273608 218.569431,59.9273608 L196.19655,59.9273608 L178.690496,59.9273608 C175.105751,59.9273608 172.067615,59.6731235 169.574274,59.1646489 C167.079116,58.6561743 165.05793,57.8335351 163.508898,56.6949153 C161.958051,55.5572034 160.832143,54.092615 160.131174,52.3002421 C159.42839,50.5087772 159.077906,48.3296005 159.077906,45.7627119 L159.077906,12.7118644 C159.077906,8.30538741 160.639649,5.1092615 163.763136,3.12348668 C166.886622,1.13861985 171.862409,0.14527845 178.690496,0.14527845 L212.322458,0.14527845 C216.001634,0.14527845 219.137833,0.37590799 221.729237,0.83535109 C224.318826,1.29661017 226.438075,2.03389831 228.085169,3.05084746 C229.730448,4.06779661 230.928995,5.37530266 231.680811,6.97336562 C232.430811,8.57142857 232.806719,10.4845642 232.806719,12.7118644 L232.806719,18.6682809 L199.973789,18.6682809 L200.046429,17.7239709 C200.046429,17.627724 200.057324,17.4951574 200.082748,17.3244552 C200.106356,17.154661 200.119068,17.0230024 200.119068,16.9249395 C200.119068,15.8598668 199.730448,15.0127119 198.95684,14.3825666 C198.181416,13.7533293 197.164467,13.4382567 195.905993,13.4382567 C194.453208,13.4382567 193.410835,13.777845 192.782506,14.4552058 C192.152361,15.1334746 191.838196,16.2239709 191.838196,17.7239709 L191.838196,42.2760291 C191.838196,43.777845 192.152361,44.8547215 192.782506,45.5084746 C193.410835,46.1622276 194.453208,46.4891041 195.905993,46.4891041 C197.358777,46.4891041 198.412046,46.1622276 199.065799,45.5084746 C199.719552,44.8547215 200.046429,43.777845 200.046429,42.2760291 L200.046429,38.6440678 Z" fill="#000" transform="translate(190.241041)"/>
    <g transform="translate(429.730115 .145188)">
      <mask id="hd9rwb669b" fill="#fff">
        <use xlink:href="#s816jj8wsa"/>
      </mask>
      <path d="M32.7602906,17.5786925 L32.7602906,42.1307506 C32.7602906,43.6325666 33.0744552,44.7094431 33.7046005,45.3631961 C34.3329298,46.0169492 35.3753027,46.3438257 36.8280872,46.3438257 C38.2808717,46.3438257 39.3341404,46.0169492 39.9878935,45.3631961 C40.6416465,44.7094431 40.968523,43.6325666 40.968523,42.1307506 L40.968523,17.5786925 C40.968523,14.722155 39.5883777,13.2929782 36.8280872,13.2929782 C35.3753027,13.2929782 34.3329298,13.6325666 33.7046005,14.3099274 C33.0744552,14.9881961 32.7602906,16.0786925 32.7602906,17.5786925 L32.7602906,17.5786925 Z M19.6125908,59.7820823 C16.027845,59.7820823 12.9897094,59.527845 10.496368,59.0193705 C8.00121065,58.5108959 5.98002421,57.6882567 4.43099274,56.5496368 C2.88014528,55.4119249 1.75514528,53.9473366 1.05326877,52.1549637 C0.350484262,50.3634988 -1.03226548e-13,48.18523 -1.03226548e-13,45.6174334 L-1.03226548e-13,12.566586 C-1.03226548e-13,8.16010896 1.56174334,4.96398305 4.68523002,2.97820823 C7.80871671,0.993341404 12.7845036,0 19.6125908,0 L53.2445521,0 C56.9237288,0 60.0599274,0.23062954 62.6513317,0.690072639 C65.2409201,1.15133172 67.3601695,1.88861985 69.0072639,2.90556901 C70.6525424,3.92251816 71.8510896,5.23002421 72.6029056,6.82808717 C73.3529056,8.42615012 73.7288136,10.3392857 73.7288136,12.566586 L73.7288136,45.6174334 C73.7288136,50.8474576 72.2269976,54.5284504 69.2251816,56.6585956 C67.7723971,57.7245763 65.7021792,58.5108959 63.0145278,59.0193705 C60.3268765,59.527845 57.0690073,59.7820823 53.2445521,59.7820823 L19.6125908,59.7820823 Z" fill="#000" mask="url(#hd9rwb669b)"/>
    </g>
  </g>
</svg>
