<svg xmlns="http://www.w3.org/2000/svg" viewBox="0 0 504 60" class="design-iconfont">
  <g fill="#000" fill-rule="evenodd">
    <path d="M113.825666,0.508565375 L81.283293,0.508565375 L75.2542373,27.5303571 L68.8619855,0.508565375 L44.9636804,0.508565375 L38.5714286,27.5303571 L32.5423729,0.508565375 L1.42108547e-14,0.508565375 L16.8523002,59.4916162 L49.9031477,59.4916162 L56.8765133,34.5037228 L63.8498789,59.4916162 L96.9007264,59.4916162 L113.825666,0.508565375 Z M109.005145,4.14052663 L94.1649516,55.859655 L66.6074455,55.859655 L60.375,33.5276332 L56.8765133,20.9919189 L53.3780266,33.5276332 L47.1464891,55.859655 L19.591707,55.859655 L4.81507264,4.14052663 L29.6313559,4.14052663 L35.0266344,28.3212167 L42.1062349,28.3666162 L47.8365617,4.14052663 L65.9891041,4.14052663 L71.719431,28.3666162 L78.7990315,28.3212167 L84.1943099,4.14052663 L109.005145,4.14052663 Z" transform="translate(-.000409)"/>
    <path d="M181.524607,0.508565375 L117.602088,0.508565375 L117.602088,59.4916162 L181.524607,59.4916162 L181.524607,46.0533596 L149.853904,46.0533596 L149.853904,33.8499697 L178.546398,33.8499697 L178.546398,20.4117131 L149.853904,20.4117131 L149.853904,13.946822 L181.524607,13.946822 L181.524607,0.508565375 Z M177.892645,4.14052663 L177.892645,10.3148608 L149.853904,10.3148608 L146.221943,10.3148608 L146.221943,13.946822 L146.221943,20.4117131 L146.221943,24.0436743 L149.853904,24.0436743 L174.914437,24.0436743 L174.914437,30.2180085 L149.853904,30.2180085 L146.221943,30.2180085 L146.221943,33.8499697 L146.221943,46.0533596 L146.221943,49.6853208 L149.853904,49.6853208 L177.892645,49.6853208 L177.892645,55.859655 L121.23405,55.859655 L121.23405,4.14052663 L177.892645,4.14052663 Z" transform="translate(-.000409)"/>
    <path d="M32.251816,45.9808111 L32.251816,35.1575666 L35.811138,35.1575666 C37.6016949,35.1575666 38.8256659,35.4726392 39.4794189,36.1018765 C40.1331719,36.7311138 40.4600484,37.8216102 40.4600484,39.3706416 L40.4600484,41.7677361 C40.4600484,43.365799 40.1331719,44.4671913 39.4794189,45.0728208 C38.8256659,45.6784504 37.6016949,45.9808111 35.811138,45.9808111 L32.251816,45.9808111 Z M32.251816,22.3004237 L32.251816,13.9469128 L35.811138,13.9469128 C37.6016949,13.9469128 38.8256659,14.2501816 39.4794189,14.8549031 C40.1331719,15.4605327 40.4600484,16.5619249 40.4600484,18.1599879 C40.4600484,19.6618039 40.1077482,20.7277845 39.4067797,21.3561138 C38.7039952,21.9862591 37.5054479,22.3004237 35.811138,22.3004237 L32.251816,22.3004237 Z M52.2276029,0.508656174 L0,0.508656174 L0,59.491707 L52.2276029,59.491707 C59.9273608,59.491707 65.3498789,58.3539952 68.4987893,56.0776634 C71.6458838,53.8022397 73.220339,49.8788136 73.220339,44.310109 C73.220339,39.2743947 72.1543584,35.497155 70.0242131,32.9783898 C67.8922518,30.4605327 64.4782082,28.7898305 59.7820823,27.9662833 C64.6234867,27.0946126 68.0738499,25.6182203 70.1331719,23.5352906 C72.190678,21.4532688 73.220339,18.4505448 73.220339,14.5280266 C73.220339,12.058293 72.8317191,9.92723971 72.0581114,8.13577482 C71.2826877,6.34430993 70.0605327,4.89243341 68.3898305,3.77742131 C66.7191283,2.66331719 64.5508475,1.84067797 61.8886199,1.30768765 C59.2245763,0.775605327 56.0048426,0.508656174 52.2276029,0.508656174 L52.2276029,0.508656174 Z M28.6198547,49.6127724 L32.251816,49.6127724 L35.811138,49.6127724 C38.5786925,49.6127724 40.5862591,48.9989709 41.9473366,47.7377724 C43.3701574,46.4193705 44.0920097,44.4108959 44.0920097,41.7677361 L44.0920097,39.3706416 C44.0920097,36.803753 43.3883172,34.8243341 41.997276,33.4850484 C40.6271186,32.1666465 38.6041162,31.5256053 35.811138,31.5256053 L32.251816,31.5256053 L28.6198547,31.5256053 L28.6198547,35.1575666 L28.6198547,45.9808111 L28.6198547,49.6127724 L28.6198547,49.6127724 Z M28.6198547,25.932385 L32.251816,25.932385 L35.811138,25.932385 C38.4570218,25.932385 40.4264528,25.3203995 41.8311138,24.0610169 C43.3311138,22.7153753 44.0920097,20.7305085 44.0920097,18.1599879 C44.0920097,15.5186441 43.3710654,13.5101695 41.9455206,12.1881356 C40.5817191,10.927845 38.5759685,10.3149516 35.811138,10.3149516 L32.251816,10.3149516 L28.6198547,10.3149516 L28.6198547,13.9469128 L28.6198547,22.3004237 L28.6198547,25.932385 L28.6198547,25.932385 Z M52.2276029,4.14061743 C55.7451574,4.14061743 58.7560533,4.38577482 61.1749395,4.86882567 C63.3604722,5.306477 65.1101695,5.95569007 66.374092,6.79830508 C67.4600484,7.52288136 68.2291162,8.43268765 68.7239709,9.57584746 C69.2969128,10.9033293 69.5883777,12.5694915 69.5883777,14.5280266 C69.5883777,17.4835351 68.9210048,19.5946126 67.5499395,20.9820218 C66.5102906,22.0334746 64.2067191,23.4789952 59.1383172,24.3915254 L59.153753,31.5428571 C62.9700363,32.212954 65.6940073,33.4850484 67.2512107,35.3237288 C68.8020581,37.1569613 69.5883777,40.180569 69.5883777,44.310109 C69.5883777,48.6829903 68.5360169,51.5694915 66.37046,53.1348668 C64.6516344,54.3779056 60.8017554,55.8597458 52.2276029,55.8597458 L3.63196126,55.8597458 L3.63196126,4.14061743 L52.2276029,4.14061743 Z" transform="translate(190.240995)"/>
    <path d="M131.621368,0 L98.3526029,0 C91.7660412,0 86.7666465,0.957021792 83.3526029,2.86924939 C79.9385593,4.78329298 78.2315375,7.55447942 78.2315375,11.1864407 L78.2315375,18.1598063 L110.919189,18.1598063 L110.919189,17.0702179 C110.919189,16.0051453 111.305993,15.1334746 112.081416,14.4552058 C112.855932,13.777845 113.872881,13.4382567 115.132264,13.4382567 C116.294492,13.4382567 117.263317,13.7905569 118.037833,14.4915254 C118.812349,15.1943099 119.200061,16.0786925 119.200061,17.1428571 C119.200061,19.8559322 117.18977,21.2106538 113.171005,21.2106538 L106.560835,21.2106538 L106.560835,34.5762712 L113.679479,34.5762712 C117.358656,34.5762712 119.200061,35.9809322 119.200061,38.7893462 L119.200061,42.2760291 C119.200061,43.777845 118.884988,44.8547215 118.255751,45.5084746 C117.625605,46.1622276 116.608656,46.4891041 115.204903,46.4891041 C113.800242,46.4891041 112.795097,46.1513317 112.190375,45.472155 C111.584746,44.7947942 111.282385,43.7288136 111.282385,42.2760291 L111.282385,38.5714286 L78.2315375,38.5714286 L78.2315375,48.8135593 C78.2315375,52.4455206 79.9140436,55.218523 83.2799637,57.1307506 C86.6449758,59.0438862 91.6697942,60 98.3526029,60 L131.621368,60 C138.594734,60 143.703087,58.9830508 146.948245,56.9491525 C150.192494,54.9152542 151.815073,51.6955206 151.815073,47.2881356 L151.815073,41.622276 C151.815073,39.5402542 151.584443,37.7360775 151.125,36.2106538 C150.664649,34.68523 149.913741,33.4031477 148.873184,32.3607748 C147.831719,31.3202179 146.47609,30.4603511 144.805387,29.7820823 C143.134685,29.1047215 141.064467,28.5472155 138.594734,28.1113801 C143.291768,26.9491525 146.669492,25.4237288 148.727906,23.535109 C150.785412,21.6464891 151.815073,19.1767554 151.815073,16.125908 L151.815073,11.1864407 C151.815073,7.55447942 150.108051,4.78329298 146.694007,2.86924939 C143.279964,0.957021792 138.255145,0 131.621368,0 L131.621368,0 Z M131.621368,3.63196126 C137.595036,3.63196126 142.068705,4.44188862 144.917978,6.0372276 C147.17615,7.3029661 148.183111,8.89104116 148.183111,11.1864407 L148.183111,16.125908 C148.183111,18.1588983 147.575666,19.6625303 146.2727,20.8592615 C145.174939,21.8653148 142.801453,23.3289952 137.722155,24.5856538 L137.96368,31.687954 C140.169189,32.0774818 142.012409,32.5687046 143.437954,33.1470944 C144.649213,33.6392252 145.614407,34.2384988 146.303571,34.9276634 C146.921005,35.5450969 147.360472,36.3087167 147.647397,37.2584746 C148.003329,38.437954 148.183111,39.9061743 148.183111,41.622276 L148.183111,47.2881356 C148.183111,51.4113196 146.377119,53.0202785 145.019673,53.8719734 C143.202785,55.0105932 139.402845,56.3680387 131.621368,56.3680387 L98.3526029,56.3680387 C92.3371671,56.3680387 87.8698547,55.5626513 85.0741525,53.9727603 C82.8541162,52.7115617 81.8634988,51.1207627 81.8634988,48.8135593 L81.8634988,42.2033898 L107.650424,42.2033898 L107.650424,42.2760291 C107.650424,44.6440678 108.266949,46.5345036 109.478208,47.8883172 C110.798426,49.3701574 112.725182,50.1210654 115.204903,50.1210654 C117.626513,50.1210654 119.532385,49.4173729 120.874395,48.0254237 C122.172821,46.6743341 122.832022,44.7403148 122.832022,42.2760291 L122.832022,38.7893462 C122.832022,33.0054479 118.104116,30.9443099 113.679479,30.9443099 L110.192797,30.9443099 L110.192797,24.842615 L113.171005,24.842615 C122.135593,24.842615 122.832022,18.9488499 122.832022,17.1428571 C122.832022,15.0463075 122.018462,13.1994552 120.474879,11.7984262 C119.034806,10.49546 117.187046,9.8062954 115.132264,9.8062954 C113.003935,9.8062954 111.121671,10.4682203 109.688862,11.723063 C108.785412,12.5139225 108.127119,13.4618644 107.730327,14.527845 L81.8634988,14.527845 L81.8634988,11.1864407 C81.8634988,8.89104116 82.87046,7.3029661 85.127724,6.03813559 C87.9779056,4.44188862 92.4270581,3.63196126 98.3526029,3.63196126 L131.621368,3.63196126 Z" transform="translate(190.240995)"/>
    <path d="M212.322548,0.145460048 L178.690587,0.145460048 C171.8625,0.145460048 166.886713,1.13880145 163.763226,3.12366828 C160.63974,5.1094431 159.077996,8.30556901 159.077996,12.712046 L159.077996,45.7628935 C159.077996,48.3297821 159.428481,50.5089588 160.131265,52.3004237 C160.832234,54.0927966 161.958142,55.557385 163.508989,56.6950969 C165.058021,57.8337167 167.079207,58.6563559 169.574364,59.1648305 C172.067706,59.6733051 175.105841,59.9275424 178.690587,59.9275424 L196.19664,59.9275424 L218.569522,59.9275424 C228.399425,59.9275424 233.170006,56.2955811 232.879449,49.0316586 L232.80681,25.4965496 L195.542887,25.4965496 L195.542887,38.6442494 L200.046519,38.6442494 L200.046519,42.2762107 C200.046519,43.7780266 199.719643,44.8549031 199.06589,45.5086562 C198.412137,46.1624092 197.358868,46.4892857 195.906084,46.4892857 C194.453299,46.4892857 193.410926,46.1624092 192.782597,45.5086562 C192.152452,44.8549031 191.838287,43.7780266 191.838287,42.2762107 L191.838287,17.7241525 C191.838287,16.2241525 192.152452,15.1336562 192.782597,14.4553874 C193.410926,13.7780266 194.453299,13.4384383 195.906084,13.4384383 C197.164558,13.4384383 198.181507,13.7535109 198.956931,14.3827482 C199.730539,15.0128935 200.119159,15.8600484 200.119159,16.9251211 C200.119159,17.022276 200.106447,17.1548426 200.082839,17.3246368 C200.057415,17.494431 200.046519,17.6269976 200.046519,17.7241525 L199.97388,18.6684625 L232.80681,18.6684625 L232.80681,12.712046 C232.80681,10.4847458 232.430902,8.57161017 231.680902,6.97354722 C230.929086,5.37548426 229.730539,4.06797821 228.08526,3.05102906 C226.438166,2.0340799 224.318916,1.29679177 221.729328,0.835532688 C219.137924,0.375181598 216.001725,0.145460048 212.322548,0.145460048 L212.322548,0.145460048 Z M212.322548,3.77742131 C215.772004,3.77742131 218.722972,3.99079903 221.092827,4.41119855 C223.220248,4.78983051 224.930902,5.3718523 226.175757,6.14001211 C227.219038,6.78468523 227.944522,7.56283293 228.393069,8.51713075 C228.911531,9.62124697 229.174849,11.0331719 229.174849,12.712046 L229.174849,15.0365012 L203.505962,15.0365012 C203.139134,13.6726998 202.367343,12.4759685 201.244159,11.5616223 C199.807718,10.3966707 198.011713,9.806477 195.906084,9.806477 C193.408202,9.806477 191.461471,10.5392252 190.120369,11.9847458 C188.850091,13.3530872 188.206326,15.2843826 188.206326,17.7241525 L188.206326,42.2762107 C188.206326,44.7423123 188.865527,46.6781477 190.164861,48.0265133 C191.502331,49.4166465 193.433626,50.121247 195.906084,50.121247 C198.349485,50.121247 200.276241,49.4338983 201.634594,48.0755448 C202.991132,46.7190073 203.678481,44.7677361 203.678481,42.2762107 L203.678481,38.6442494 L203.678481,35.0122881 L200.046519,35.0122881 L199.174849,35.0122881 L199.174849,29.1285109 L229.185745,29.1285109 L229.247488,49.0425545 L229.247488,49.1097458 L229.250212,49.176937 C229.332839,51.2535109 228.887016,52.7689467 227.887318,53.8104116 C226.324667,55.4357143 223.103117,56.2955811 218.569522,56.2955811 L196.19664,56.2955811 L178.690587,56.2955811 C175.365527,56.2955811 172.542585,56.0631356 170.299849,55.6064165 C168.334958,55.2059927 166.774122,54.5876513 165.656386,53.7659201 C164.663953,53.0386199 163.962984,52.1251816 163.512621,50.9747579 C162.979631,49.6164044 162.709958,47.8630751 162.709958,45.7628935 L162.709958,12.712046 C162.709958,8.57524213 164.423335,7.00805085 165.710866,6.18904358 C167.442403,5.08855932 171.099788,3.77742131 178.690587,3.77742131 L212.322548,3.77742131 Z" transform="translate(190.240995)"/>
    <path d="M276.317252,46.4892857 C274.864467,46.4892857 273.822094,46.1624092 273.193765,45.5086562 C272.56362,44.8549031 272.249455,43.7780266 272.249455,42.2762107 L272.249455,17.7241525 C272.249455,16.2232446 272.56362,15.1336562 273.193765,14.4553874 C273.822094,13.7780266 274.864467,13.4384383 276.317252,13.4384383 C279.077542,13.4384383 280.457688,14.866707 280.457688,17.7241525 L280.457688,42.2762107 C280.457688,43.7780266 280.130811,44.8549031 279.477058,45.5086562 C278.823305,46.1624092 277.770036,46.4892857 276.317252,46.4892857 L276.317252,46.4892857 Z M292.733717,0.145460048 L259.101755,0.145460048 C252.273668,0.145460048 247.297881,1.13880145 244.174395,3.12366828 C241.050908,5.1094431 239.489165,8.30556901 239.489165,12.712046 L239.489165,45.7628935 C239.489165,48.3297821 239.839649,50.5089588 240.542433,52.3004237 C241.24431,54.0927966 242.36931,55.557385 243.920157,56.6950969 C245.469189,57.8337167 247.490375,58.6563559 249.985533,59.1648305 C252.478874,59.6733051 255.51701,59.9275424 259.101755,59.9275424 L292.733717,59.9275424 C296.558172,59.9275424 299.816041,59.6733051 302.503692,59.1648305 C305.191344,58.6563559 307.261562,57.8700363 308.714346,56.8040557 C311.716162,54.6739104 313.217978,50.9929177 313.217978,45.7628935 L313.217978,12.712046 C313.217978,10.4847458 312.84207,8.57161017 312.09207,6.97354722 C311.340254,5.37548426 310.141707,4.06797821 308.496429,3.05102906 C306.849334,2.0340799 304.730085,1.29679177 302.140496,0.835532688 C299.549092,0.375181598 296.412893,0.145460048 292.733717,0.145460048 L292.733717,0.145460048 Z M276.317252,50.121247 C278.760654,50.121247 280.687409,49.4338983 282.045763,48.0755448 C283.4023,46.7190073 284.089649,44.7677361 284.089649,42.2762107 L284.089649,17.7241525 C284.089649,12.8400726 281.111441,9.806477 276.317252,9.806477 C273.81937,9.806477 271.872639,10.5392252 270.531538,11.9847458 C269.261259,13.3530872 268.617494,15.2843826 268.617494,17.7241525 L268.617494,42.2762107 C268.617494,44.7423123 269.277603,46.6781477 270.576029,48.0265133 C271.913499,49.4166465 273.844794,50.121247 276.317252,50.121247 L276.317252,50.121247 Z M292.733717,3.77742131 C296.183172,3.77742131 299.135048,3.99079903 301.503995,4.41119855 C303.631416,4.78983051 305.34207,5.3718523 306.586925,6.14001211 C307.630206,6.78468523 308.35569,7.56283293 308.804237,8.51713075 C309.3227,9.62124697 309.586017,11.0331719 309.586017,12.712046 L309.586017,45.7628935 C309.586017,49.7798426 308.612651,52.4220944 306.612349,53.8421913 L306.588741,53.8585351 L306.565133,53.8757869 C305.875061,54.3824455 304.493099,55.091586 301.828148,55.5964286 C299.375666,56.0604116 296.316646,56.2955811 292.733717,56.2955811 L259.101755,56.2955811 C255.776695,56.2955811 252.953753,56.0631356 250.711017,55.6064165 C248.746126,55.2059927 247.185291,54.5876513 246.068462,53.7659201 C245.075121,53.0386199 244.374153,52.1251816 243.923789,50.9747579 C243.390799,49.6164044 243.121126,47.8630751 243.121126,45.7628935 L243.121126,12.712046 C243.121126,8.57524213 244.834504,7.00805085 246.122034,6.18904358 C247.853571,5.08855932 251.510956,3.77742131 259.101755,3.77742131 L292.733717,3.77742131 Z" transform="translate(190.240995)"/>
  </g>
</svg>
