<svg xmlns="http://www.w3.org/2000/svg" viewBox="0 0 594 64" class="design-iconfont">
  <g stroke="#000" stroke-width="3" fill="none" fill-rule="evenodd">
    <path d="M86.700687,1.20953454 L76.962909,58.7905538 L49.6582499,58.7905538 C47.157532,49.9434908 44.9519518,39.8787638 43.0388583,28.5946053 C42.1666998,33.4325668 40.1325469,43.4981775 36.9390505,58.7905538 L9.78991318,58.7905538 L0,1.20953454 L21.2463826,1.20953454 L23.5571167,21.3001082 L25.7918572,40.7226456 C26.5986259,30.6711733 28.6142223,17.5013144 31.8395299,1.20953454 L54.5492301,1.20953454 C54.851437,2.89288002 55.6458347,9.22420306 56.9341905,20.2017364 L59.3500784,42.1099697 C60.5942519,28.1713389 62.6284048,14.537566 65.4543045,1.20953454 L86.700687,1.20953454 Z" transform="translate(2 2)"/>
    <path d="M91.012349 1.20953454L127.479533 1.20953454 127.479533 12.733161 112.882586 12.733161 112.882586 23.65149 126.544635 23.65149 126.544635 34.6051649 112.882586 34.6051649 112.882586 47.2669273 128.934014 47.2669273 128.934014 58.7905538 91.012349 58.7905538z" transform="translate(2 2)"/>
    <path d="M157.089977,32.8270926 L157.089977,48.9386087 C160.172134,48.8670334 162.136479,48.5356662 162.985663,47.9427397 C163.833963,47.350697 164.258113,45.8917976 164.258113,43.5678088 L164.258113,38.1978925 C164.258113,35.7325204 163.877262,34.2382751 163.115559,33.7160404 C162.353856,33.1955729 160.344445,32.8986679 157.089977,32.8270926 Z M157.089977,11.0611262 L157.089977,23.864272 C158.024875,23.8412972 158.752115,23.8289261 159.271699,23.8289261 C161.418075,23.8289261 162.785959,23.4683986 163.375351,22.7446926 C163.963859,22.0209866 164.258113,19.9523715 164.258113,16.5379636 C164.258113,14.7362096 164.015994,13.4743632 163.531756,12.7506572 C163.045751,12.0269512 162.413944,11.5709899 161.635452,11.381006 C160.856076,11.1919058 159.340623,11.0849846 157.089977,11.0611262 Z M135.219741,1.20935781 L157.037842,1.20935781 C163.929397,1.20935781 169.149977,1.57695451 172.700466,2.31126428 C176.249188,3.04557404 179.115736,4.53275013 181.297457,6.7719089 C183.479179,9.01106767 184.570482,12.6181103 184.570482,17.5939205 C184.570482,20.9588442 183.799059,23.3049241 182.25798,24.6321603 C180.716902,25.9585128 177.678044,26.9773566 173.141405,27.6878079 C178.197627,28.4707182 181.626174,29.7696777 183.427044,31.5846864 C185.227031,33.3996951 186.12835,36.1814125 186.12835,39.9298385 L186.12835,45.2679435 C186.12835,49.1586365 185.47887,52.0410895 184.180794,53.9153025 C182.881834,55.7895155 180.812336,57.0708021 177.972298,57.7582787 C175.13226,58.4466388 169.314335,58.7903771 160.518523,58.7903771 L135.219741,58.7903771 L135.219741,1.20935781 Z" transform="translate(2 2)"/>
    <path d="M232.777167,26.158747 C235.96271,26.894824 238.336183,28.0983498 239.894051,29.7710915 C241.451919,31.4429496 242.231294,35.3636866 242.231294,41.5315351 C242.231294,46.1097046 241.469592,49.6628449 239.946186,52.1891886 C238.421897,54.7146486 235.790399,56.6365785 232.049926,57.9532109 C228.309453,59.2698434 223.513023,59.9281596 217.660636,59.9281596 C211.0112,59.9281596 205.79062,59.1638059 201.998012,57.6342148 C198.206287,56.1055073 195.712638,54.232178 194.517949,52.0151103 C193.32326,49.7980427 192.725915,45.9506484 192.725915,40.4738109 L192.725915,35.9212671 L213.712506,35.9212671 L213.712506,45.2755429 C213.712506,47.7647735 213.928115,49.3473833 214.361986,50.0233724 C214.794088,50.6984779 215.755495,51.0369143 217.244439,51.0369143 C218.872114,51.0369143 219.945744,50.6101133 220.465328,49.7565114 C220.984912,48.9029094 221.244704,46.6743544 221.244704,43.0699627 L221.244704,39.0864868 C221.244704,36.8817903 220.881525,35.2700201 220.154285,34.2502927 C219.427044,33.2305653 218.352531,32.5607617 216.933395,32.2399982 C215.512493,31.9210021 212.759935,31.7363201 208.673957,31.6894868 L208.673957,23.33108 C213.660371,23.33108 216.742528,23.2011841 217.920428,22.9396249 C219.097444,22.6789493 219.945744,22.1098814 220.465328,21.232421 C220.984912,20.3558442 221.244704,18.9800075 221.244704,17.1075618 L221.244704,13.9061126 C221.244704,11.8913999 220.940729,10.5632801 220.335432,9.9226368 C219.729251,9.28287715 218.785517,8.96299733 217.50423,8.96299733 C216.049749,8.96299733 215.05388,9.30055007 214.517507,9.9765392 C213.980251,10.6525283 213.712506,12.0928712 213.712506,14.2975678 L213.712506,19.0277244 L192.725915,19.0277244 L192.725915,14.1199549 C192.725915,8.61925906 194.560364,4.90264431 198.231913,2.97011068 C201.902578,1.03757704 207.739059,0.071752049 215.738706,0.071752049 C225.745996,0.071752049 232.535048,1.41047562 236.101443,4.08703912 C239.668721,6.76448627 241.451919,10.4846356 241.451919,15.2474871 C241.451919,18.4701438 240.811275,20.7976672 239.530872,22.2318245 C238.248702,23.6650982 235.998056,24.9737778 232.777167,26.158747 Z" transform="translate(2 2)"/>
    <path d="M300.568538,22.406698 L278.698301,22.406698 L278.698301,17.1781651 C278.698301,13.8830495 278.490644,11.8206199 278.075331,10.9899927 C277.660017,10.1602492 276.672985,9.7449356 275.114233,9.7449356 C273.764022,9.7449356 272.845031,10.1010449 272.360793,10.8123799 C271.875671,11.5237148 271.633552,13.3493273 271.633552,16.2892173 L271.633552,43.9234763 C271.633552,46.5081406 271.875671,48.209159 272.360793,49.0274151 C272.845031,49.8456712 273.815274,50.2547993 275.270639,50.2547993 C276.862969,50.2547993 277.945435,49.7917688 278.51627,48.8674752 C279.087989,47.9422979 279.37429,46.1405439 279.37429,43.4613294 L279.37429,36.6325138 L274.958712,36.6325138 L274.958712,27.8835355 L300.568538,27.8835355 L300.568538,58.7899353 L286.825193,58.7899353 L284.802527,54.6641925 C283.3127,56.4429717 281.431418,57.7763934 279.162215,58.6653412 C276.892129,59.5551726 274.214682,59.9996465 271.130758,59.9996465 C267.455674,59.9996465 264.016524,59.3890472 260.810657,58.1678485 C257.604789,56.9466499 255.170345,55.4356153 253.50644,53.6329777 C251.842534,51.8312236 250.803367,49.9402214 250.387169,47.9599708 C249.971856,45.9814876 249.764199,43.0115537 249.764199,39.0510526 L249.764199,21.9445512 C249.764199,16.4438553 250.196302,12.4480085 251.063159,9.95877792 C251.928248,7.46866371 254.41306,5.18708993 258.517596,3.11228931 C262.621247,1.03748868 267.927541,8.83645923e-05 274.439128,8.83645923e-05 C280.845561,8.83645923e-05 286.161575,0.901407206 290.387169,2.70316124 C294.611881,4.50579893 297.365321,6.64510571 298.646608,9.12284887 C299.927011,11.600592 300.568538,15.1987982 300.568538,19.9174675 L300.568538,22.406698 Z" transform="translate(2 2)"/>
    <path d="M337.139727,16.004595 C337.139727,13.3253805 336.923233,11.6119911 336.490247,10.8653103 C336.05726,10.1186295 335.165662,9.74573089 333.815451,9.74573089 C332.672013,9.74573089 331.797203,10.0470541 331.191906,10.6523516 C330.585725,11.2567654 330.282634,13.0408465 330.282634,16.004595 L330.282634,42.8921731 C330.282634,46.2350056 330.481454,48.2983189 330.879979,49.0812292 C331.277619,49.8632558 332.205448,50.2547109 333.659929,50.2547109 C335.147989,50.2547109 336.100559,49.8040515 336.515872,48.9027327 C336.93207,48.0022975 337.139727,45.8568052 337.139727,42.4653721 L337.139727,16.004595 Z M359.009963,34.9261051 C359.009963,40.711335 358.810259,44.8070338 358.412618,47.2132017 C358.014094,49.6202532 356.76727,51.8196479 354.672145,53.8113858 C352.576137,55.8031237 349.744936,57.3318311 346.178541,58.3992754 C342.611262,59.465836 338.455475,59.9995582 333.71118,59.9995582 C329.209004,59.9995582 325.166324,59.4949964 321.581373,58.48764 C317.997305,57.4802837 315.113968,55.9692491 312.932246,53.9536528 C310.750525,51.9380564 309.452449,49.7448472 309.036252,47.3740252 C308.620938,45.0032032 308.413281,40.853602 308.413281,34.9261051 L308.413281,25.0743367 C308.413281,19.2891069 308.611218,15.193408 309.010626,12.7854729 C309.408267,10.3801887 310.654207,8.18079396 312.750215,6.18905605 C314.84534,4.19731813 317.676541,2.66772704 321.24382,1.60028277 C324.810215,0.533722138 328.966002,0 333.71118,0 C338.212473,0 342.25692,0.503678176 345.840988,1.51191817 C349.425056,2.52015817 352.308392,4.0311927 354.490114,6.04590541 C356.671836,8.06150176 357.970796,10.2555946 358.386109,12.6264166 C358.802306,14.9972386 359.009963,19.1468399 359.009963,25.0743367 L359.009963,34.9261051 Z" transform="translate(2 2)"/>
    <path d="M407.78819 1.20953454L407.78819 47.2669273 421.086178 47.2669273 421.086178 58.7905538 385.917953 58.7905538 385.917953 1.20953454z" transform="translate(2 2)"/>
    <path d="M455.248813,38.2334151 C454.141604,31.7112245 453.030861,23.6506064 451.917467,14.0489098 C449.688912,25.07416 448.290101,33.1365454 447.720149,38.2334151 L455.248813,38.2334151 Z M466.839596,1.20953454 L479.345837,58.7905538 L456.995781,58.7905538 L455.821415,48.4404091 L447.998498,48.4404091 L446.683633,58.7905538 L424.073784,58.7905538 L435.229814,1.20953454 L466.839596,1.20953454 Z" transform="translate(2 2)"/>
    <path d="M504.930214,32.8270926 L504.930214,48.9386087 C508.012371,48.8670334 509.976716,48.5356662 510.8259,47.9427397 C511.6742,47.350697 512.09835,45.8917976 512.09835,43.5678088 L512.09835,38.1978925 C512.09835,35.7325204 511.717498,34.2382751 510.955796,33.7160404 C510.194093,33.1955729 508.184682,32.8986679 504.930214,32.8270926 Z M504.930214,11.0611262 L504.930214,23.864272 C505.865111,23.8412972 506.592352,23.8289261 507.111936,23.8289261 C509.258312,23.8289261 510.626196,23.4683986 511.215588,22.7446926 C511.804096,22.0209866 512.09835,19.9523715 512.09835,16.5379636 C512.09835,14.7362096 511.856231,13.4743632 511.371993,12.7506572 C510.885988,12.0269512 510.254181,11.5709899 509.475689,11.381006 C508.696313,11.1919058 507.18086,11.0849846 504.930214,11.0611262 Z M483.059977,1.20935781 L504.878079,1.20935781 C511.769634,1.20935781 516.990214,1.57695451 520.540703,2.31126428 C524.089425,3.04557404 526.955972,4.53275013 529.137694,6.7719089 C531.319416,9.01106767 532.410719,12.6181103 532.410719,17.5939205 C532.410719,20.9588442 531.639296,23.3049241 530.098217,24.6321603 C528.557139,25.9585128 525.51828,26.9773566 520.981642,27.6878079 C526.037864,28.4707182 529.46641,29.7696777 531.267281,31.5846864 C533.067268,33.3996951 533.968586,36.1814125 533.968586,39.9298385 L533.968586,45.2679435 C533.968586,49.1586365 533.319107,52.0410895 532.021031,53.9153025 C530.722071,55.7895155 528.652573,57.0708021 525.812535,57.7582787 C522.972497,58.4466388 517.154572,58.7903771 508.35876,58.7903771 L483.059977,58.7903771 L483.059977,1.20935781 Z" transform="translate(2 2)"/>
    <path d="M588.149955,18.6365343 L567.83847,18.6365343 L567.83847,14.3685245 C567.83847,12.3776703 567.578678,11.1087547 567.059094,10.5635452 C566.53951,10.0183357 565.673537,9.74528906 564.462058,9.74528906 C563.145426,9.74528906 562.150441,10.1128858 561.475335,10.8489628 C560.799346,11.5850399 560.461793,12.6993174 560.461793,14.1944463 C560.461793,16.1154925 560.840877,17.5637882 561.600813,18.5357987 C562.325403,19.5086929 564.385181,20.6821747 567.781033,22.0562441 C577.51616,26.0123269 583.647779,29.258842 586.17589,31.7957894 C588.703117,34.3336205 589.968498,38.4231339 589.968498,44.0660967 C589.968498,48.1679811 589.266883,51.1909338 587.863653,53.1358385 C586.461307,55.0798595 583.751165,56.7093026 579.734111,58.025935 C575.716173,59.3416838 571.041686,60 565.708883,60 C559.855612,60 554.859478,59.2400645 550.721364,57.7228445 C546.582367,56.2065081 543.873108,54.2730908 542.591822,51.9261272 C541.310535,49.5791636 540.669892,46.2478185 540.669892,41.9320918 L540.669892,38.1624583 L560.981377,38.1624583 L560.981377,45.1688868 C560.981377,47.3267502 561.266795,48.7131906 561.838514,49.3299755 C562.410233,49.9467603 563.422891,50.2542691 564.877372,50.2542691 C566.331853,50.2542691 567.413436,49.862814 568.123887,49.0807873 C568.833455,48.297877 569.18868,47.1367663 569.18868,45.5956878 C569.18868,42.2051384 568.513575,39.9880708 567.163364,38.9444849 C565.777807,37.9017828 562.36605,36.159233 556.928977,33.715952 C551.491904,31.2505799 547.890163,29.4611969 546.123755,28.3460357 C544.35823,27.2317582 542.894912,25.6906797 541.734685,23.7228003 C540.574458,21.7549208 539.993903,19.2409482 539.993903,16.1826496 C539.993903,11.7723728 540.816577,8.54794884 542.461926,6.50849405 C544.106391,4.4699229 546.765282,2.87582566 550.435947,1.72531866 C554.106612,0.575695319 558.539863,0.000441822962 563.734818,0.000441822962 C569.41401,0.000441822962 574.253739,0.628714074 578.254004,1.88525858 C582.254269,3.14180308 584.90344,4.72441293 586.201515,6.63308812 C587.500475,8.54176332 588.149955,11.7847439 588.149955,16.3602624 L588.149955,18.6365343 Z" transform="translate(2 2)"/>
  </g>
</svg>
